  0
SECTION
  2
HEADER
  9
$ACADVER
  1
AC1009
  9
$EXTMIN
 10
0.0
 20
0.0
 30
0.0
  9
$EXTMAX
 10
1000.0
 20
1000.0
 30
0.0
  9
$FILLMODE
 70
 0
  9
$SPLFRAME
 70
 1
  0
ENDSEC
  0
SECTION
  2
TABLES
  0
TABLE
  2
LAYER
 70
   255
  0
LAYER
  2
0
 70
     0
 62
     7
  6
CONTINUOUS
  0
ENDTAB
  0
ENDSEC
  0
SECTION
  2
ENTITIES
  0
POLYLINE
8
0
 62
     7
 66
     1
 10
0
 20
0
 30
0.0
 40
0
 41
0
  0
VERTEX
  8
0
 10
567.922
 20
652.96
 30
0.0
 40
0
 41
0
  0
VERTEX
  8
0
 10
567.346
 20
647.248
 30
0.0
 40
0
 41
0
  0
VERTEX
  8
0
 10
565.694
 20
641.927
 30
0.0
 40
0
 41
0
  0
VERTEX
  8
0
 10
563.081
 20
637.112
 30
0.0
 40
0
 41
0
  0
VERTEX
  8
0
 10
559.62
 20
632.917
 30
0.0
 40
0
 41
0
  0
VERTEX
  8
0
 10
555.425
 20
629.455
 30
0.0
 40
0
 41
0
  0
VERTEX
  8
0
 10
550.61
 20
626.842
 30
0.0
 40
0
 41
0
  0
VERTEX
  8
0
 10
545.289
 20
625.19
 30
0.0
 40
0
 41
0
  0
VERTEX
  8
0
 10
539.576
 20
624.614
 30
0.0
 40
0
 41
0
  0
VERTEX
  8
0
 10
533.863
 20
625.19
 30
0.0
 40
0
 41
0
  0
VERTEX
  8
0
 10
528.542
 20
626.842
 30
0.0
 40
0
 41
0
  0
VERTEX
  8
0
 10
523.728
 20
629.455
 30
0.0
 40
0
 41
0
  0
VERTEX
  8
0
 10
519.532
 20
632.917
 30
0.0
 40
0
 41
0
  0
VERTEX
  8
0
 10
516.071
 20
637.112
 30
0.0
 40
0
 41
0
  0
VERTEX
  8
0
 10
513.458
 20
641.927
 30
0.0
 40
0
 41
0
  0
VERTEX
  8
0
 10
511.806
 20
647.248
 30
0.0
 40
0
 41
0
  0
VERTEX
  8
0
 10
511.23
 20
652.96
 30
0.0
 40
0
 41
0
  0
VERTEX
  8
0
 10
511.806
 20
658.673
 30
0.0
 40
0
 41
0
  0
VERTEX
  8
0
 10
513.458
 20
663.994
 30
0.0
 40
0
 41
0
  0
VERTEX
  8
0
 10
516.071
 20
668.809
 30
0.0
 40
0
 41
0
  0
VERTEX
  8
0
 10
519.532
 20
673.004
 30
0.0
 40
0
 41
0
  0
VERTEX
  8
0
 10
523.728
 20
676.465
 30
0.0
 40
0
 41
0
  0
VERTEX
  8
0
 10
528.542
 20
679.079
 30
0.0
 40
0
 41
0
  0
VERTEX
  8
0
 10
533.863
 20
680.73
 30
0.0
 40
0
 41
0
  0
VERTEX
  8
0
 10
539.576
 20
681.306
 30
0.0
 40
0
 41
0
  0
VERTEX
  8
0
 10
545.289
 20
680.73
 30
0.0
 40
0
 41
0
  0
VERTEX
  8
0
 10
550.61
 20
679.079
 30
0.0
 40
0
 41
0
  0
VERTEX
  8
0
 10
555.425
 20
676.465
 30
0.0
 40
0
 41
0
  0
VERTEX
  8
0
 10
559.62
 20
673.004
 30
0.0
 40
0
 41
0
  0
VERTEX
  8
0
 10
563.081
 20
668.809
 30
0.0
 40
0
 41
0
  0
VERTEX
  8
0
 10
565.694
 20
663.994
 30
0.0
 40
0
 41
0
  0
VERTEX
  8
0
 10
567.346
 20
658.673
 30
0.0
 40
0
 41
0
  0
VERTEX
  8
0
 10
567.922
 20
652.96
 30
0.0
 40
0
 41
0
  0
SEQEND
  8
0
  0
POLYLINE
8
0
 62
     0
 66
     1
 10
0
 20
0
 30
0.0
 70
     1
 40
2.8346
 41
2.8346
  0
VERTEX
  8
0
 10
567.922
 20
652.96
 30
0.0
 40
2.8346
 41
2.8346
  0
VERTEX
  8
0
 10
567.346
 20
647.248
 30
0.0
 40
2.8346
 41
2.8346
  0
VERTEX
  8
0
 10
565.694
 20
641.927
 30
0.0
 40
2.8346
 41
2.8346
  0
VERTEX
  8
0
 10
563.081
 20
637.112
 30
0.0
 40
2.8346
 41
2.8346
  0
VERTEX
  8
0
 10
559.62
 20
632.917
 30
0.0
 40
2.8346
 41
2.8346
  0
VERTEX
  8
0
 10
555.425
 20
629.455
 30
0.0
 40
2.8346
 41
2.8346
  0
VERTEX
  8
0
 10
550.61
 20
626.842
 30
0.0
 40
2.8346
 41
2.8346
  0
VERTEX
  8
0
 10
545.289
 20
625.19
 30
0.0
 40
2.8346
 41
2.8346
  0
VERTEX
  8
0
 10
539.576
 20
624.614
 30
0.0
 40
2.8346
 41
2.8346
  0
VERTEX
  8
0
 10
533.863
 20
625.19
 30
0.0
 40
2.8346
 41
2.8346
  0
VERTEX
  8
0
 10
528.542
 20
626.842
 30
0.0
 40
2.8346
 41
2.8346
  0
VERTEX
  8
0
 10
523.728
 20
629.455
 30
0.0
 40
2.8346
 41
2.8346
  0
VERTEX
  8
0
 10
519.532
 20
632.917
 30
0.0
 40
2.8346
 41
2.8346
  0
VERTEX
  8
0
 10
516.071
 20
637.112
 30
0.0
 40
2.8346
 41
2.8346
  0
VERTEX
  8
0
 10
513.458
 20
641.927
 30
0.0
 40
2.8346
 41
2.8346
  0
VERTEX
  8
0
 10
511.806
 20
647.248
 30
0.0
 40
2.8346
 41
2.8346
  0
VERTEX
  8
0
 10
511.23
 20
652.96
 30
0.0
 40
2.8346
 41
2.8346
  0
VERTEX
  8
0
 10
511.806
 20
658.673
 30
0.0
 40
2.8346
 41
2.8346
  0
VERTEX
  8
0
 10
513.458
 20
663.994
 30
0.0
 40
2.8346
 41
2.8346
  0
VERTEX
  8
0
 10
516.071
 20
668.809
 30
0.0
 40
2.8346
 41
2.8346
  0
VERTEX
  8
0
 10
519.532
 20
673.004
 30
0.0
 40
2.8346
 41
2.8346
  0
VERTEX
  8
0
 10
523.728
 20
676.465
 30
0.0
 40
2.8346
 41
2.8346
  0
VERTEX
  8
0
 10
528.542
 20
679.079
 30
0.0
 40
2.8346
 41
2.8346
  0
VERTEX
  8
0
 10
533.863
 20
680.73
 30
0.0
 40
2.8346
 41
2.8346
  0
VERTEX
  8
0
 10
539.576
 20
681.306
 30
0.0
 40
2.8346
 41
2.8346
  0
VERTEX
  8
0
 10
545.289
 20
680.73
 30
0.0
 40
2.8346
 41
2.8346
  0
VERTEX
  8
0
 10
550.61
 20
679.079
 30
0.0
 40
2.8346
 41
2.8346
  0
VERTEX
  8
0
 10
555.425
 20
676.465
 30
0.0
 40
2.8346
 41
2.8346
  0
VERTEX
  8
0
 10
559.62
 20
673.004
 30
0.0
 40
2.8346
 41
2.8346
  0
VERTEX
  8
0
 10
563.081
 20
668.809
 30
0.0
 40
2.8346
 41
2.8346
  0
VERTEX
  8
0
 10
565.694
 20
663.994
 30
0.0
 40
2.8346
 41
2.8346
  0
VERTEX
  8
0
 10
567.346
 20
658.673
 30
0.0
 40
2.8346
 41
2.8346
  0
VERTEX
  8
0
 10
567.922
 20
652.96
 30
0.0
 40
2.8346
 41
2.8346
  0
SEQEND
  8
0
  0
POLYLINE
8
0
 62
     7
 66
     1
 10
0
 20
0
 30
0.0
 40
0
 41
0
  0
VERTEX
  8
0
 10
114.386
 20
482.884
 30
0.0
 40
0
 41
0
  0
VERTEX
  8
0
 10
113.81
 20
477.171
 30
0.0
 40
0
 41
0
  0
VERTEX
  8
0
 10
112.158
 20
471.851
 30
0.0
 40
0
 41
0
  0
VERTEX
  8
0
 10
109.545
 20
467.036
 30
0.0
 40
0
 41
0
  0
VERTEX
  8
0
 10
106.083
 20
462.841
 30
0.0
 40
0
 41
0
  0
VERTEX
  8
0
 10
101.888
 20
459.379
 30
0.0
 40
0
 41
0
  0
VERTEX
  8
0
 10
97.0735
 20
456.766
 30
0.0
 40
0
 41
0
  0
VERTEX
  8
0
 10
91.7527
 20
455.114
 30
0.0
 40
0
 41
0
  0
VERTEX
  8
0
 10
86.04
 20
454.538
 30
0.0
 40
0
 41
0
  0
VERTEX
  8
0
 10
80.3271
 20
455.114
 30
0.0
 40
0
 41
0
  0
VERTEX
  8
0
 10
75.0063
 20
456.766
 30
0.0
 40
0
 41
0
  0
VERTEX
  8
0
 10
70.1914
 20
459.379
 30
0.0
 40
0
 41
0
  0
VERTEX
  8
0
 10
65.9963
 20
462.841
 30
0.0
 40
0
 41
0
  0
VERTEX
  8
0
 10
62.5349
 20
467.036
 30
0.0
 40
0
 41
0
  0
VERTEX
  8
0
 10
59.9216
 20
471.851
 30
0.0
 40
0
 41
0
  0
VERTEX
  8
0
 10
58.2698
 20
477.171
 30
0.0
 40
0
 41
0
  0
VERTEX
  8
0
 10
57.6941
 20
482.884
 30
0.0
 40
0
 41
0
  0
VERTEX
  8
0
 10
58.2698
 20
488.597
 30
0.0
 40
0
 41
0
  0
VERTEX
  8
0
 10
59.9216
 20
493.918
 30
0.0
 40
0
 41
0
  0
VERTEX
  8
0
 10
62.5349
 20
498.733
 30
0.0
 40
0
 41
0
  0
VERTEX
  8
0
 10
65.9963
 20
502.928
 30
0.0
 40
0
 41
0
  0
VERTEX
  8
0
 10
70.1914
 20
506.389
 30
0.0
 40
0
 41
0
  0
VERTEX
  8
0
 10
75.0063
 20
509.002
 30
0.0
 40
0
 41
0
  0
VERTEX
  8
0
 10
80.3271
 20
510.654
 30
0.0
 40
0
 41
0
  0
VERTEX
  8
0
 10
86.04
 20
511.23
 30
0.0
 40
0
 41
0
  0
VERTEX
  8
0
 10
91.7527
 20
510.654
 30
0.0
 40
0
 41
0
  0
VERTEX
  8
0
 10
97.0735
 20
509.002
 30
0.0
 40
0
 41
0
  0
VERTEX
  8
0
 10
101.888
 20
506.389
 30
0.0
 40
0
 41
0
  0
VERTEX
  8
0
 10
106.083
 20
502.928
 30
0.0
 40
0
 41
0
  0
VERTEX
  8
0
 10
109.545
 20
498.733
 30
0.0
 40
0
 41
0
  0
VERTEX
  8
0
 10
112.158
 20
493.918
 30
0.0
 40
0
 41
0
  0
VERTEX
  8
0
 10
113.81
 20
488.597
 30
0.0
 40
0
 41
0
  0
VERTEX
  8
0
 10
114.386
 20
482.884
 30
0.0
 40
0
 41
0
  0
SEQEND
  8
0
  0
POLYLINE
8
0
 62
     0
 66
     1
 10
0
 20
0
 30
0.0
 70
     1
 40
2.8346
 41
2.8346
  0
VERTEX
  8
0
 10
114.386
 20
482.884
 30
0.0
 40
2.8346
 41
2.8346
  0
VERTEX
  8
0
 10
113.81
 20
477.171
 30
0.0
 40
2.8346
 41
2.8346
  0
VERTEX
  8
0
 10
112.158
 20
471.851
 30
0.0
 40
2.8346
 41
2.8346
  0
VERTEX
  8
0
 10
109.545
 20
467.036
 30
0.0
 40
2.8346
 41
2.8346
  0
VERTEX
  8
0
 10
106.083
 20
462.841
 30
0.0
 40
2.8346
 41
2.8346
  0
VERTEX
  8
0
 10
101.888
 20
459.379
 30
0.0
 40
2.8346
 41
2.8346
  0
VERTEX
  8
0
 10
97.0735
 20
456.766
 30
0.0
 40
2.8346
 41
2.8346
  0
VERTEX
  8
0
 10
91.7527
 20
455.114
 30
0.0
 40
2.8346
 41
2.8346
  0
VERTEX
  8
0
 10
86.04
 20
454.538
 30
0.0
 40
2.8346
 41
2.8346
  0
VERTEX
  8
0
 10
80.3271
 20
455.114
 30
0.0
 40
2.8346
 41
2.8346
  0
VERTEX
  8
0
 10
75.0063
 20
456.766
 30
0.0
 40
2.8346
 41
2.8346
  0
VERTEX
  8
0
 10
70.1914
 20
459.379
 30
0.0
 40
2.8346
 41
2.8346
  0
VERTEX
  8
0
 10
65.9963
 20
462.841
 30
0.0
 40
2.8346
 41
2.8346
  0
VERTEX
  8
0
 10
62.5349
 20
467.036
 30
0.0
 40
2.8346
 41
2.8346
  0
VERTEX
  8
0
 10
59.9216
 20
471.851
 30
0.0
 40
2.8346
 41
2.8346
  0
VERTEX
  8
0
 10
58.2698
 20
477.171
 30
0.0
 40
2.8346
 41
2.8346
  0
VERTEX
  8
0
 10
57.6941
 20
482.884
 30
0.0
 40
2.8346
 41
2.8346
  0
VERTEX
  8
0
 10
58.2698
 20
488.597
 30
0.0
 40
2.8346
 41
2.8346
  0
VERTEX
  8
0
 10
59.9216
 20
493.918
 30
0.0
 40
2.8346
 41
2.8346
  0
VERTEX
  8
0
 10
62.5349
 20
498.733
 30
0.0
 40
2.8346
 41
2.8346
  0
VERTEX
  8
0
 10
65.9963
 20
502.928
 30
0.0
 40
2.8346
 41
2.8346
  0
VERTEX
  8
0
 10
70.1914
 20
506.389
 30
0.0
 40
2.8346
 41
2.8346
  0
VERTEX
  8
0
 10
75.0063
 20
509.002
 30
0.0
 40
2.8346
 41
2.8346
  0
VERTEX
  8
0
 10
80.3271
 20
510.654
 30
0.0
 40
2.8346
 41
2.8346
  0
VERTEX
  8
0
 10
86.04
 20
511.23
 30
0.0
 40
2.8346
 41
2.8346
  0
VERTEX
  8
0
 10
91.7527
 20
510.654
 30
0.0
 40
2.8346
 41
2.8346
  0
VERTEX
  8
0
 10
97.0735
 20
509.002
 30
0.0
 40
2.8346
 41
2.8346
  0
VERTEX
  8
0
 10
101.888
 20
506.389
 30
0.0
 40
2.8346
 41
2.8346
  0
VERTEX
  8
0
 10
106.083
 20
502.928
 30
0.0
 40
2.8346
 41
2.8346
  0
VERTEX
  8
0
 10
109.545
 20
498.733
 30
0.0
 40
2.8346
 41
2.8346
  0
VERTEX
  8
0
 10
112.158
 20
493.918
 30
0.0
 40
2.8346
 41
2.8346
  0
VERTEX
  8
0
 10
113.81
 20
488.597
 30
0.0
 40
2.8346
 41
2.8346
  0
VERTEX
  8
0
 10
114.386
 20
482.884
 30
0.0
 40
2.8346
 41
2.8346
  0
SEQEND
  8
0
  0
POLYLINE
8
0
 62
     7
 66
     1
 10
0
 20
0
 30
0.0
 40
0
 41
0
  0
VERTEX
  8
0
 10
1021.46
 20
567.922
 30
0.0
 40
0
 41
0
  0
VERTEX
  8
0
 10
1020.88
 20
562.209
 30
0.0
 40
0
 41
0
  0
VERTEX
  8
0
 10
1019.23
 20
556.889
 30
0.0
 40
0
 41
0
  0
VERTEX
  8
0
 10
1016.62
 20
552.074
 30
0.0
 40
0
 41
0
  0
VERTEX
  8
0
 10
1013.16
 20
547.879
 30
0.0
 40
0
 41
0
  0
VERTEX
  8
0
 10
1008.96
 20
544.417
 30
0.0
 40
0
 41
0
  0
VERTEX
  8
0
 10
1004.15
 20
541.804
 30
0.0
 40
0
 41
0
  0
VERTEX
  8
0
 10
998.825
 20
540.152
 30
0.0
 40
0
 41
0
  0
VERTEX
  8
0
 10
993.112
 20
539.576
 30
0.0
 40
0
 41
0
  0
VERTEX
  8
0
 10
987.399
 20
540.152
 30
0.0
 40
0
 41
0
  0
VERTEX
  8
0
 10
982.078
 20
541.804
 30
0.0
 40
0
 41
0
  0
VERTEX
  8
0
 10
977.263
 20
544.417
 30
0.0
 40
0
 41
0
  0
VERTEX
  8
0
 10
973.068
 20
547.879
 30
0.0
 40
0
 41
0
  0
VERTEX
  8
0
 10
969.607
 20
552.074
 30
0.0
 40
0
 41
0
  0
VERTEX
  8
0
 10
966.994
 20
556.889
 30
0.0
 40
0
 41
0
  0
VERTEX
  8
0
 10
965.342
 20
562.209
 30
0.0
 40
0
 41
0
  0
VERTEX
  8
0
 10
964.766
 20
567.922
 30
0.0
 40
0
 41
0
  0
VERTEX
  8
0
 10
965.342
 20
573.635
 30
0.0
 40
0
 41
0
  0
VERTEX
  8
0
 10
966.994
 20
578.956
 30
0.0
 40
0
 41
0
  0
VERTEX
  8
0
 10
969.607
 20
583.771
 30
0.0
 40
0
 41
0
  0
VERTEX
  8
0
 10
973.068
 20
587.966
 30
0.0
 40
0
 41
0
  0
VERTEX
  8
0
 10
977.263
 20
591.427
 30
0.0
 40
0
 41
0
  0
VERTEX
  8
0
 10
982.078
 20
594.041
 30
0.0
 40
0
 41
0
  0
VERTEX
  8
0
 10
987.399
 20
595.692
 30
0.0
 40
0
 41
0
  0
VERTEX
  8
0
 10
993.112
 20
596.268
 30
0.0
 40
0
 41
0
  0
VERTEX
  8
0
 10
998.825
 20
595.692
 30
0.0
 40
0
 41
0
  0
VERTEX
  8
0
 10
1004.15
 20
594.041
 30
0.0
 40
0
 41
0
  0
VERTEX
  8
0
 10
1008.96
 20
591.427
 30
0.0
 40
0
 41
0
  0
VERTEX
  8
0
 10
1013.16
 20
587.966
 30
0.0
 40
0
 41
0
  0
VERTEX
  8
0
 10
1016.62
 20
583.771
 30
0.0
 40
0
 41
0
  0
VERTEX
  8
0
 10
1019.23
 20
578.956
 30
0.0
 40
0
 41
0
  0
VERTEX
  8
0
 10
1020.88
 20
573.635
 30
0.0
 40
0
 41
0
  0
VERTEX
  8
0
 10
1021.46
 20
567.922
 30
0.0
 40
0
 41
0
  0
SEQEND
  8
0
  0
POLYLINE
8
0
 62
     0
 66
     1
 10
0
 20
0
 30
0.0
 70
     1
 40
2.8346
 41
2.8346
  0
VERTEX
  8
0
 10
1021.46
 20
567.922
 30
0.0
 40
2.8346
 41
2.8346
  0
VERTEX
  8
0
 10
1020.88
 20
562.209
 30
0.0
 40
2.8346
 41
2.8346
  0
VERTEX
  8
0
 10
1019.23
 20
556.889
 30
0.0
 40
2.8346
 41
2.8346
  0
VERTEX
  8
0
 10
1016.62
 20
552.074
 30
0.0
 40
2.8346
 41
2.8346
  0
VERTEX
  8
0
 10
1013.16
 20
547.879
 30
0.0
 40
2.8346
 41
2.8346
  0
VERTEX
  8
0
 10
1008.96
 20
544.417
 30
0.0
 40
2.8346
 41
2.8346
  0
VERTEX
  8
0
 10
1004.15
 20
541.804
 30
0.0
 40
2.8346
 41
2.8346
  0
VERTEX
  8
0
 10
998.825
 20
540.152
 30
0.0
 40
2.8346
 41
2.8346
  0
VERTEX
  8
0
 10
993.112
 20
539.576
 30
0.0
 40
2.8346
 41
2.8346
  0
VERTEX
  8
0
 10
987.399
 20
540.152
 30
0.0
 40
2.8346
 41
2.8346
  0
VERTEX
  8
0
 10
982.078
 20
541.804
 30
0.0
 40
2.8346
 41
2.8346
  0
VERTEX
  8
0
 10
977.263
 20
544.417
 30
0.0
 40
2.8346
 41
2.8346
  0
VERTEX
  8
0
 10
973.068
 20
547.879
 30
0.0
 40
2.8346
 41
2.8346
  0
VERTEX
  8
0
 10
969.607
 20
552.074
 30
0.0
 40
2.8346
 41
2.8346
  0
VERTEX
  8
0
 10
966.994
 20
556.889
 30
0.0
 40
2.8346
 41
2.8346
  0
VERTEX
  8
0
 10
965.342
 20
562.209
 30
0.0
 40
2.8346
 41
2.8346
  0
VERTEX
  8
0
 10
964.766
 20
567.922
 30
0.0
 40
2.8346
 41
2.8346
  0
VERTEX
  8
0
 10
965.342
 20
573.635
 30
0.0
 40
2.8346
 41
2.8346
  0
VERTEX
  8
0
 10
966.994
 20
578.956
 30
0.0
 40
2.8346
 41
2.8346
  0
VERTEX
  8
0
 10
969.607
 20
583.771
 30
0.0
 40
2.8346
 41
2.8346
  0
VERTEX
  8
0
 10
973.068
 20
587.966
 30
0.0
 40
2.8346
 41
2.8346
  0
VERTEX
  8
0
 10
977.263
 20
591.427
 30
0.0
 40
2.8346
 41
2.8346
  0
VERTEX
  8
0
 10
982.078
 20
594.041
 30
0.0
 40
2.8346
 41
2.8346
  0
VERTEX
  8
0
 10
987.399
 20
595.692
 30
0.0
 40
2.8346
 41
2.8346
  0
VERTEX
  8
0
 10
993.112
 20
596.268
 30
0.0
 40
2.8346
 41
2.8346
  0
VERTEX
  8
0
 10
998.825
 20
595.692
 30
0.0
 40
2.8346
 41
2.8346
  0
VERTEX
  8
0
 10
1004.15
 20
594.041
 30
0.0
 40
2.8346
 41
2.8346
  0
VERTEX
  8
0
 10
1008.96
 20
591.427
 30
0.0
 40
2.8346
 41
2.8346
  0
VERTEX
  8
0
 10
1013.16
 20
587.966
 30
0.0
 40
2.8346
 41
2.8346
  0
VERTEX
  8
0
 10
1016.62
 20
583.771
 30
0.0
 40
2.8346
 41
2.8346
  0
VERTEX
  8
0
 10
1019.23
 20
578.956
 30
0.0
 40
2.8346
 41
2.8346
  0
VERTEX
  8
0
 10
1020.88
 20
573.635
 30
0.0
 40
2.8346
 41
2.8346
  0
VERTEX
  8
0
 10
1021.46
 20
567.922
 30
0.0
 40
2.8346
 41
2.8346
  0
SEQEND
  8
0
  0
POLYLINE
8
0
 62
     7
 66
     1
 10
0
 20
0
 30
0.0
 40
0
 41
0
  0
VERTEX
  8
0
 10
1474.99
 20
709.652
 30
0.0
 40
0
 41
0
  0
VERTEX
  8
0
 10
1474.42
 20
703.939
 30
0.0
 40
0
 41
0
  0
VERTEX
  8
0
 10
1472.77
 20
698.619
 30
0.0
 40
0
 41
0
  0
VERTEX
  8
0
 10
1470.15
 20
693.804
 30
0.0
 40
0
 41
0
  0
VERTEX
  8
0
 10
1466.69
 20
689.609
 30
0.0
 40
0
 41
0
  0
VERTEX
  8
0
 10
1462.5
 20
686.147
 30
0.0
 40
0
 41
0
  0
VERTEX
  8
0
 10
1457.68
 20
683.534
 30
0.0
 40
0
 41
0
  0
VERTEX
  8
0
 10
1452.36
 20
681.882
 30
0.0
 40
0
 41
0
  0
VERTEX
  8
0
 10
1446.65
 20
681.306
 30
0.0
 40
0
 41
0
  0
VERTEX
  8
0
 10
1440.94
 20
681.882
 30
0.0
 40
0
 41
0
  0
VERTEX
  8
0
 10
1435.61
 20
683.534
 30
0.0
 40
0
 41
0
  0
VERTEX
  8
0
 10
1430.8
 20
686.147
 30
0.0
 40
0
 41
0
  0
VERTEX
  8
0
 10
1426.6
 20
689.609
 30
0.0
 40
0
 41
0
  0
VERTEX
  8
0
 10
1423.14
 20
693.804
 30
0.0
 40
0
 41
0
  0
VERTEX
  8
0
 10
1420.53
 20
698.619
 30
0.0
 40
0
 41
0
  0
VERTEX
  8
0
 10
1418.88
 20
703.939
 30
0.0
 40
0
 41
0
  0
VERTEX
  8
0
 10
1418.3
 20
709.652
 30
0.0
 40
0
 41
0
  0
VERTEX
  8
0
 10
1418.88
 20
715.365
 30
0.0
 40
0
 41
0
  0
VERTEX
  8
0
 10
1420.53
 20
720.686
 30
0.0
 40
0
 41
0
  0
VERTEX
  8
0
 10
1423.14
 20
725.501
 30
0.0
 40
0
 41
0
  0
VERTEX
  8
0
 10
1426.6
 20
729.696
 30
0.0
 40
0
 41
0
  0
VERTEX
  8
0
 10
1430.8
 20
733.157
 30
0.0
 40
0
 41
0
  0
VERTEX
  8
0
 10
1435.61
 20
735.771
 30
0.0
 40
0
 41
0
  0
VERTEX
  8
0
 10
1440.94
 20
737.422
 30
0.0
 40
0
 41
0
  0
VERTEX
  8
0
 10
1446.65
 20
737.998
 30
0.0
 40
0
 41
0
  0
VERTEX
  8
0
 10
1452.36
 20
737.422
 30
0.0
 40
0
 41
0
  0
VERTEX
  8
0
 10
1457.68
 20
735.771
 30
0.0
 40
0
 41
0
  0
VERTEX
  8
0
 10
1462.5
 20
733.157
 30
0.0
 40
0
 41
0
  0
VERTEX
  8
0
 10
1466.69
 20
729.696
 30
0.0
 40
0
 41
0
  0
VERTEX
  8
0
 10
1470.15
 20
725.501
 30
0.0
 40
0
 41
0
  0
VERTEX
  8
0
 10
1472.77
 20
720.686
 30
0.0
 40
0
 41
0
  0
VERTEX
  8
0
 10
1474.42
 20
715.365
 30
0.0
 40
0
 41
0
  0
VERTEX
  8
0
 10
1474.99
 20
709.652
 30
0.0
 40
0
 41
0
  0
SEQEND
  8
0
  0
POLYLINE
8
0
 62
     0
 66
     1
 10
0
 20
0
 30
0.0
 70
     1
 40
2.8346
 41
2.8346
  0
VERTEX
  8
0
 10
1474.99
 20
709.652
 30
0.0
 40
2.8346
 41
2.8346
  0
VERTEX
  8
0
 10
1474.42
 20
703.939
 30
0.0
 40
2.8346
 41
2.8346
  0
VERTEX
  8
0
 10
1472.77
 20
698.619
 30
0.0
 40
2.8346
 41
2.8346
  0
VERTEX
  8
0
 10
1470.15
 20
693.804
 30
0.0
 40
2.8346
 41
2.8346
  0
VERTEX
  8
0
 10
1466.69
 20
689.609
 30
0.0
 40
2.8346
 41
2.8346
  0
VERTEX
  8
0
 10
1462.5
 20
686.147
 30
0.0
 40
2.8346
 41
2.8346
  0
VERTEX
  8
0
 10
1457.68
 20
683.534
 30
0.0
 40
2.8346
 41
2.8346
  0
VERTEX
  8
0
 10
1452.36
 20
681.882
 30
0.0
 40
2.8346
 41
2.8346
  0
VERTEX
  8
0
 10
1446.65
 20
681.306
 30
0.0
 40
2.8346
 41
2.8346
  0
VERTEX
  8
0
 10
1440.94
 20
681.882
 30
0.0
 40
2.8346
 41
2.8346
  0
VERTEX
  8
0
 10
1435.61
 20
683.534
 30
0.0
 40
2.8346
 41
2.8346
  0
VERTEX
  8
0
 10
1430.8
 20
686.147
 30
0.0
 40
2.8346
 41
2.8346
  0
VERTEX
  8
0
 10
1426.6
 20
689.609
 30
0.0
 40
2.8346
 41
2.8346
  0
VERTEX
  8
0
 10
1423.14
 20
693.804
 30
0.0
 40
2.8346
 41
2.8346
  0
VERTEX
  8
0
 10
1420.53
 20
698.619
 30
0.0
 40
2.8346
 41
2.8346
  0
VERTEX
  8
0
 10
1418.88
 20
703.939
 30
0.0
 40
2.8346
 41
2.8346
  0
VERTEX
  8
0
 10
1418.3
 20
709.652
 30
0.0
 40
2.8346
 41
2.8346
  0
VERTEX
  8
0
 10
1418.88
 20
715.365
 30
0.0
 40
2.8346
 41
2.8346
  0
VERTEX
  8
0
 10
1420.53
 20
720.686
 30
0.0
 40
2.8346
 41
2.8346
  0
VERTEX
  8
0
 10
1423.14
 20
725.501
 30
0.0
 40
2.8346
 41
2.8346
  0
VERTEX
  8
0
 10
1426.6
 20
729.696
 30
0.0
 40
2.8346
 41
2.8346
  0
VERTEX
  8
0
 10
1430.8
 20
733.157
 30
0.0
 40
2.8346
 41
2.8346
  0
VERTEX
  8
0
 10
1435.61
 20
735.771
 30
0.0
 40
2.8346
 41
2.8346
  0
VERTEX
  8
0
 10
1440.94
 20
737.422
 30
0.0
 40
2.8346
 41
2.8346
  0
VERTEX
  8
0
 10
1446.65
 20
737.998
 30
0.0
 40
2.8346
 41
2.8346
  0
VERTEX
  8
0
 10
1452.36
 20
737.422
 30
0.0
 40
2.8346
 41
2.8346
  0
VERTEX
  8
0
 10
1457.68
 20
735.771
 30
0.0
 40
2.8346
 41
2.8346
  0
VERTEX
  8
0
 10
1462.5
 20
733.157
 30
0.0
 40
2.8346
 41
2.8346
  0
VERTEX
  8
0
 10
1466.69
 20
729.696
 30
0.0
 40
2.8346
 41
2.8346
  0
VERTEX
  8
0
 10
1470.15
 20
725.501
 30
0.0
 40
2.8346
 41
2.8346
  0
VERTEX
  8
0
 10
1472.77
 20
720.686
 30
0.0
 40
2.8346
 41
2.8346
  0
VERTEX
  8
0
 10
1474.42
 20
715.365
 30
0.0
 40
2.8346
 41
2.8346
  0
VERTEX
  8
0
 10
1474.99
 20
709.652
 30
0.0
 40
2.8346
 41
2.8346
  0
SEQEND
  8
0
  0
POLYLINE
8
0
 62
     0
 66
     1
 10
0
 20
0
 30
0.0
 40
2.8346
 41
2.8346
  0
VERTEX
  8
0
 10
86.0396
 20
482.883
 30
0.0
 40
2.8346
 41
2.8346
  0
VERTEX
  8
0
 10
105.534
 20
503.034
 30
0.0
 40
2.8346
 41
2.8346
  0
VERTEX
  8
0
 10
125.954
 20
522.048
 30
0.0
 40
2.8346
 41
2.8346
  0
VERTEX
  8
0
 10
147.249
 20
539.901
 30
0.0
 40
2.8346
 41
2.8346
  0
VERTEX
  8
0
 10
169.368
 20
556.572
 30
0.0
 40
2.8346
 41
2.8346
  0
VERTEX
  8
0
 10
192.259
 20
572.037
 30
0.0
 40
2.8346
 41
2.8346
  0
VERTEX
  8
0
 10
215.873
 20
586.276
 30
0.0
 40
2.8346
 41
2.8346
  0
VERTEX
  8
0
 10
240.157
 20
599.265
 30
0.0
 40
2.8346
 41
2.8346
  0
VERTEX
  8
0
 10
265.061
 20
610.981
 30
0.0
 40
2.8346
 41
2.8346
  0
VERTEX
  8
0
 10
290.534
 20
621.404
 30
0.0
 40
2.8346
 41
2.8346
  0
VERTEX
  8
0
 10
316.525
 20
630.509
 30
0.0
 40
2.8346
 41
2.8346
  0
VERTEX
  8
0
 10
342.983
 20
638.275
 30
0.0
 40
2.8346
 41
2.8346
  0
VERTEX
  8
0
 10
369.856
 20
644.679
 30
0.0
 40
2.8346
 41
2.8346
  0
VERTEX
  8
0
 10
397.095
 20
649.699
 30
0.0
 40
2.8346
 41
2.8346
  0
VERTEX
  8
0
 10
424.648
 20
653.312
 30
0.0
 40
2.8346
 41
2.8346
  0
VERTEX
  8
0
 10
452.464
 20
655.497
 30
0.0
 40
2.8346
 41
2.8346
  0
VERTEX
  8
0
 10
480.492
 20
656.23
 30
0.0
 40
2.8346
 41
2.8346
  0
VERTEX
  8
0
 10
539.575
 20
652.96
 30
0.0
 40
2.8346
 41
2.8346
  0
SEQEND
  8
0
  0
POLYLINE
8
0
 62
     0
 66
     1
 10
0
 20
0
 30
0.0
 40
2.8346
 41
2.8346
  0
VERTEX
  8
0
 10
993.115
 20
567.922
 30
0.0
 40
2.8346
 41
2.8346
  0
VERTEX
  8
0
 10
936.772
 20
566.255
 30
0.0
 40
2.8346
 41
2.8346
  0
VERTEX
  8
0
 10
885.456
 20
567.638
 30
0.0
 40
2.8346
 41
2.8346
  0
VERTEX
  8
0
 10
834.399
 20
571.769
 30
0.0
 40
2.8346
 41
2.8346
  0
VERTEX
  8
0
 10
783.711
 20
578.625
 30
0.0
 40
2.8346
 41
2.8346
  0
VERTEX
  8
0
 10
733.499
 20
588.183
 30
0.0
 40
2.8346
 41
2.8346
  0
VERTEX
  8
0
 10
683.871
 20
600.42
 30
0.0
 40
2.8346
 41
2.8346
  0
VERTEX
  8
0
 10
634.936
 20
615.31
 30
0.0
 40
2.8346
 41
2.8346
  0
VERTEX
  8
0
 10
586.802
 20
632.831
 30
0.0
 40
2.8346
 41
2.8346
  0
VERTEX
  8
0
 10
539.578
 20
652.959
 30
0.0
 40
2.8346
 41
2.8346
  0
SEQEND
  8
0
  0
POLYLINE
8
0
 62
     0
 66
     1
 10
0
 20
0
 30
0.0
 40
2.8346
 41
2.8346
  0
VERTEX
  8
0
 10
1446.65
 20
709.652
 30
0.0
 40
2.8346
 41
2.8346
  0
VERTEX
  8
0
 10
1394.19
 20
680.265
 30
0.0
 40
2.8346
 41
2.8346
  0
VERTEX
  8
0
 10
1340.21
 20
654.117
 30
0.0
 40
2.8346
 41
2.8346
  0
VERTEX
  8
0
 10
1284.88
 20
631.257
 30
0.0
 40
2.8346
 41
2.8346
  0
VERTEX
  8
0
 10
1228.34
 20
611.732
 30
0.0
 40
2.8346
 41
2.8346
  0
VERTEX
  8
0
 10
1170.74
 20
595.588
 30
0.0
 40
2.8346
 41
2.8346
  0
VERTEX
  8
0
 10
1112.23
 20
582.874
 30
0.0
 40
2.8346
 41
2.8346
  0
VERTEX
  8
0
 10
1052.98
 20
573.636
 30
0.0
 40
2.8346
 41
2.8346
  0
VERTEX
  8
0
 10
993.115
 20
567.922
 30
0.0
 40
2.8346
 41
2.8346
  0
SEQEND
  8
0
  0
POLYLINE
8
0
 62
     7
 66
     1
 10
0
 20
0
 30
0.0
 40
0
 41
0
  0
VERTEX
  8
0
 10
567.922
 20
256.116
 30
0.0
 40
0
 41
0
  0
VERTEX
  8
0
 10
567.346
 20
250.404
 30
0.0
 40
0
 41
0
  0
VERTEX
  8
0
 10
565.694
 20
245.083
 30
0.0
 40
0
 41
0
  0
VERTEX
  8
0
 10
563.081
 20
240.268
 30
0.0
 40
0
 41
0
  0
VERTEX
  8
0
 10
559.62
 20
236.073
 30
0.0
 40
0
 41
0
  0
VERTEX
  8
0
 10
555.425
 20
232.611
 30
0.0
 40
0
 41
0
  0
VERTEX
  8
0
 10
550.61
 20
229.998
 30
0.0
 40
0
 41
0
  0
VERTEX
  8
0
 10
545.289
 20
228.346
 30
0.0
 40
0
 41
0
  0
VERTEX
  8
0
 10
539.576
 20
227.77
 30
0.0
 40
0
 41
0
  0
VERTEX
  8
0
 10
533.863
 20
228.346
 30
0.0
 40
0
 41
0
  0
VERTEX
  8
0
 10
528.542
 20
229.998
 30
0.0
 40
0
 41
0
  0
VERTEX
  8
0
 10
523.728
 20
232.611
 30
0.0
 40
0
 41
0
  0
VERTEX
  8
0
 10
519.532
 20
236.073
 30
0.0
 40
0
 41
0
  0
VERTEX
  8
0
 10
516.071
 20
240.268
 30
0.0
 40
0
 41
0
  0
VERTEX
  8
0
 10
513.458
 20
245.083
 30
0.0
 40
0
 41
0
  0
VERTEX
  8
0
 10
511.806
 20
250.404
 30
0.0
 40
0
 41
0
  0
VERTEX
  8
0
 10
511.23
 20
256.116
 30
0.0
 40
0
 41
0
  0
VERTEX
  8
0
 10
511.806
 20
261.829
 30
0.0
 40
0
 41
0
  0
VERTEX
  8
0
 10
513.458
 20
267.15
 30
0.0
 40
0
 41
0
  0
VERTEX
  8
0
 10
516.071
 20
271.965
 30
0.0
 40
0
 41
0
  0
VERTEX
  8
0
 10
519.532
 20
276.16
 30
0.0
 40
0
 41
0
  0
VERTEX
  8
0
 10
523.728
 20
279.621
 30
0.0
 40
0
 41
0
  0
VERTEX
  8
0
 10
528.542
 20
282.235
 30
0.0
 40
0
 41
0
  0
VERTEX
  8
0
 10
533.863
 20
283.886
 30
0.0
 40
0
 41
0
  0
VERTEX
  8
0
 10
539.576
 20
284.462
 30
0.0
 40
0
 41
0
  0
VERTEX
  8
0
 10
545.289
 20
283.886
 30
0.0
 40
0
 41
0
  0
VERTEX
  8
0
 10
550.61
 20
282.235
 30
0.0
 40
0
 41
0
  0
VERTEX
  8
0
 10
555.425
 20
279.621
 30
0.0
 40
0
 41
0
  0
VERTEX
  8
0
 10
559.62
 20
276.16
 30
0.0
 40
0
 41
0
  0
VERTEX
  8
0
 10
563.081
 20
271.965
 30
0.0
 40
0
 41
0
  0
VERTEX
  8
0
 10
565.694
 20
267.15
 30
0.0
 40
0
 41
0
  0
VERTEX
  8
0
 10
567.346
 20
261.829
 30
0.0
 40
0
 41
0
  0
VERTEX
  8
0
 10
567.922
 20
256.116
 30
0.0
 40
0
 41
0
  0
SEQEND
  8
0
  0
POLYLINE
8
0
 62
     0
 66
     1
 10
0
 20
0
 30
0.0
 70
     1
 40
2.8346
 41
2.8346
  0
VERTEX
  8
0
 10
567.922
 20
256.116
 30
0.0
 40
2.8346
 41
2.8346
  0
VERTEX
  8
0
 10
567.346
 20
250.404
 30
0.0
 40
2.8346
 41
2.8346
  0
VERTEX
  8
0
 10
565.694
 20
245.083
 30
0.0
 40
2.8346
 41
2.8346
  0
VERTEX
  8
0
 10
563.081
 20
240.268
 30
0.0
 40
2.8346
 41
2.8346
  0
VERTEX
  8
0
 10
559.62
 20
236.073
 30
0.0
 40
2.8346
 41
2.8346
  0
VERTEX
  8
0
 10
555.425
 20
232.611
 30
0.0
 40
2.8346
 41
2.8346
  0
VERTEX
  8
0
 10
550.61
 20
229.998
 30
0.0
 40
2.8346
 41
2.8346
  0
VERTEX
  8
0
 10
545.289
 20
228.346
 30
0.0
 40
2.8346
 41
2.8346
  0
VERTEX
  8
0
 10
539.576
 20
227.77
 30
0.0
 40
2.8346
 41
2.8346
  0
VERTEX
  8
0
 10
533.863
 20
228.346
 30
0.0
 40
2.8346
 41
2.8346
  0
VERTEX
  8
0
 10
528.542
 20
229.998
 30
0.0
 40
2.8346
 41
2.8346
  0
VERTEX
  8
0
 10
523.728
 20
232.611
 30
0.0
 40
2.8346
 41
2.8346
  0
VERTEX
  8
0
 10
519.532
 20
236.073
 30
0.0
 40
2.8346
 41
2.8346
  0
VERTEX
  8
0
 10
516.071
 20
240.268
 30
0.0
 40
2.8346
 41
2.8346
  0
VERTEX
  8
0
 10
513.458
 20
245.083
 30
0.0
 40
2.8346
 41
2.8346
  0
VERTEX
  8
0
 10
511.806
 20
250.404
 30
0.0
 40
2.8346
 41
2.8346
  0
VERTEX
  8
0
 10
511.23
 20
256.116
 30
0.0
 40
2.8346
 41
2.8346
  0
VERTEX
  8
0
 10
511.806
 20
261.829
 30
0.0
 40
2.8346
 41
2.8346
  0
VERTEX
  8
0
 10
513.458
 20
267.15
 30
0.0
 40
2.8346
 41
2.8346
  0
VERTEX
  8
0
 10
516.071
 20
271.965
 30
0.0
 40
2.8346
 41
2.8346
  0
VERTEX
  8
0
 10
519.532
 20
276.16
 30
0.0
 40
2.8346
 41
2.8346
  0
VERTEX
  8
0
 10
523.728
 20
279.621
 30
0.0
 40
2.8346
 41
2.8346
  0
VERTEX
  8
0
 10
528.542
 20
282.235
 30
0.0
 40
2.8346
 41
2.8346
  0
VERTEX
  8
0
 10
533.863
 20
283.886
 30
0.0
 40
2.8346
 41
2.8346
  0
VERTEX
  8
0
 10
539.576
 20
284.462
 30
0.0
 40
2.8346
 41
2.8346
  0
VERTEX
  8
0
 10
545.289
 20
283.886
 30
0.0
 40
2.8346
 41
2.8346
  0
VERTEX
  8
0
 10
550.61
 20
282.235
 30
0.0
 40
2.8346
 41
2.8346
  0
VERTEX
  8
0
 10
555.425
 20
279.621
 30
0.0
 40
2.8346
 41
2.8346
  0
VERTEX
  8
0
 10
559.62
 20
276.16
 30
0.0
 40
2.8346
 41
2.8346
  0
VERTEX
  8
0
 10
563.081
 20
271.965
 30
0.0
 40
2.8346
 41
2.8346
  0
VERTEX
  8
0
 10
565.694
 20
267.15
 30
0.0
 40
2.8346
 41
2.8346
  0
VERTEX
  8
0
 10
567.346
 20
261.829
 30
0.0
 40
2.8346
 41
2.8346
  0
VERTEX
  8
0
 10
567.922
 20
256.116
 30
0.0
 40
2.8346
 41
2.8346
  0
SEQEND
  8
0
  0
POLYLINE
8
0
 62
     7
 66
     1
 10
0
 20
0
 30
0.0
 40
0
 41
0
  0
VERTEX
  8
0
 10
114.386
 20
86.04
 30
0.0
 40
0
 41
0
  0
VERTEX
  8
0
 10
113.81
 20
80.3274
 30
0.0
 40
0
 41
0
  0
VERTEX
  8
0
 10
112.158
 20
75.0066
 30
0.0
 40
0
 41
0
  0
VERTEX
  8
0
 10
109.545
 20
70.1916
 30
0.0
 40
0
 41
0
  0
VERTEX
  8
0
 10
106.083
 20
65.9965
 30
0.0
 40
0
 41
0
  0
VERTEX
  8
0
 10
101.888
 20
62.5352
 30
0.0
 40
0
 41
0
  0
VERTEX
  8
0
 10
97.0735
 20
59.9219
 30
0.0
 40
0
 41
0
  0
VERTEX
  8
0
 10
91.7527
 20
58.27
 30
0.0
 40
0
 41
0
  0
VERTEX
  8
0
 10
86.04
 20
57.6941
 30
0.0
 40
0
 41
0
  0
VERTEX
  8
0
 10
80.3271
 20
58.27
 30
0.0
 40
0
 41
0
  0
VERTEX
  8
0
 10
75.0063
 20
59.9219
 30
0.0
 40
0
 41
0
  0
VERTEX
  8
0
 10
70.1914
 20
62.5352
 30
0.0
 40
0
 41
0
  0
VERTEX
  8
0
 10
65.9963
 20
65.9965
 30
0.0
 40
0
 41
0
  0
VERTEX
  8
0
 10
62.5349
 20
70.1916
 30
0.0
 40
0
 41
0
  0
VERTEX
  8
0
 10
59.9216
 20
75.0066
 30
0.0
 40
0
 41
0
  0
VERTEX
  8
0
 10
58.2698
 20
80.3274
 30
0.0
 40
0
 41
0
  0
VERTEX
  8
0
 10
57.6941
 20
86.04
 30
0.0
 40
0
 41
0
  0
VERTEX
  8
0
 10
58.2698
 20
91.7529
 30
0.0
 40
0
 41
0
  0
VERTEX
  8
0
 10
59.9216
 20
97.0737
 30
0.0
 40
0
 41
0
  0
VERTEX
  8
0
 10
62.5349
 20
101.889
 30
0.0
 40
0
 41
0
  0
VERTEX
  8
0
 10
65.9963
 20
106.084
 30
0.0
 40
0
 41
0
  0
VERTEX
  8
0
 10
70.1914
 20
109.545
 30
0.0
 40
0
 41
0
  0
VERTEX
  8
0
 10
75.0063
 20
112.159
 30
0.0
 40
0
 41
0
  0
VERTEX
  8
0
 10
80.3271
 20
113.81
 30
0.0
 40
0
 41
0
  0
VERTEX
  8
0
 10
86.04
 20
114.386
 30
0.0
 40
0
 41
0
  0
VERTEX
  8
0
 10
91.7527
 20
113.81
 30
0.0
 40
0
 41
0
  0
VERTEX
  8
0
 10
97.0735
 20
112.159
 30
0.0
 40
0
 41
0
  0
VERTEX
  8
0
 10
101.888
 20
109.545
 30
0.0
 40
0
 41
0
  0
VERTEX
  8
0
 10
106.083
 20
106.084
 30
0.0
 40
0
 41
0
  0
VERTEX
  8
0
 10
109.545
 20
101.889
 30
0.0
 40
0
 41
0
  0
VERTEX
  8
0
 10
112.158
 20
97.0737
 30
0.0
 40
0
 41
0
  0
VERTEX
  8
0
 10
113.81
 20
91.7529
 30
0.0
 40
0
 41
0
  0
VERTEX
  8
0
 10
114.386
 20
86.04
 30
0.0
 40
0
 41
0
  0
SEQEND
  8
0
  0
POLYLINE
8
0
 62
     0
 66
     1
 10
0
 20
0
 30
0.0
 70
     1
 40
2.8346
 41
2.8346
  0
VERTEX
  8
0
 10
114.386
 20
86.04
 30
0.0
 40
2.8346
 41
2.8346
  0
VERTEX
  8
0
 10
113.81
 20
80.3274
 30
0.0
 40
2.8346
 41
2.8346
  0
VERTEX
  8
0
 10
112.158
 20
75.0066
 30
0.0
 40
2.8346
 41
2.8346
  0
VERTEX
  8
0
 10
109.545
 20
70.1916
 30
0.0
 40
2.8346
 41
2.8346
  0
VERTEX
  8
0
 10
106.083
 20
65.9965
 30
0.0
 40
2.8346
 41
2.8346
  0
VERTEX
  8
0
 10
101.888
 20
62.5352
 30
0.0
 40
2.8346
 41
2.8346
  0
VERTEX
  8
0
 10
97.0735
 20
59.9219
 30
0.0
 40
2.8346
 41
2.8346
  0
VERTEX
  8
0
 10
91.7527
 20
58.27
 30
0.0
 40
2.8346
 41
2.8346
  0
VERTEX
  8
0
 10
86.04
 20
57.6941
 30
0.0
 40
2.8346
 41
2.8346
  0
VERTEX
  8
0
 10
80.3271
 20
58.27
 30
0.0
 40
2.8346
 41
2.8346
  0
VERTEX
  8
0
 10
75.0063
 20
59.9219
 30
0.0
 40
2.8346
 41
2.8346
  0
VERTEX
  8
0
 10
70.1914
 20
62.5352
 30
0.0
 40
2.8346
 41
2.8346
  0
VERTEX
  8
0
 10
65.9963
 20
65.9965
 30
0.0
 40
2.8346
 41
2.8346
  0
VERTEX
  8
0
 10
62.5349
 20
70.1916
 30
0.0
 40
2.8346
 41
2.8346
  0
VERTEX
  8
0
 10
59.9216
 20
75.0066
 30
0.0
 40
2.8346
 41
2.8346
  0
VERTEX
  8
0
 10
58.2698
 20
80.3274
 30
0.0
 40
2.8346
 41
2.8346
  0
VERTEX
  8
0
 10
57.6941
 20
86.04
 30
0.0
 40
2.8346
 41
2.8346
  0
VERTEX
  8
0
 10
58.2698
 20
91.7529
 30
0.0
 40
2.8346
 41
2.8346
  0
VERTEX
  8
0
 10
59.9216
 20
97.0737
 30
0.0
 40
2.8346
 41
2.8346
  0
VERTEX
  8
0
 10
62.5349
 20
101.889
 30
0.0
 40
2.8346
 41
2.8346
  0
VERTEX
  8
0
 10
65.9963
 20
106.084
 30
0.0
 40
2.8346
 41
2.8346
  0
VERTEX
  8
0
 10
70.1914
 20
109.545
 30
0.0
 40
2.8346
 41
2.8346
  0
VERTEX
  8
0
 10
75.0063
 20
112.159
 30
0.0
 40
2.8346
 41
2.8346
  0
VERTEX
  8
0
 10
80.3271
 20
113.81
 30
0.0
 40
2.8346
 41
2.8346
  0
VERTEX
  8
0
 10
86.04
 20
114.386
 30
0.0
 40
2.8346
 41
2.8346
  0
VERTEX
  8
0
 10
91.7527
 20
113.81
 30
0.0
 40
2.8346
 41
2.8346
  0
VERTEX
  8
0
 10
97.0735
 20
112.159
 30
0.0
 40
2.8346
 41
2.8346
  0
VERTEX
  8
0
 10
101.888
 20
109.545
 30
0.0
 40
2.8346
 41
2.8346
  0
VERTEX
  8
0
 10
106.083
 20
106.084
 30
0.0
 40
2.8346
 41
2.8346
  0
VERTEX
  8
0
 10
109.545
 20
101.889
 30
0.0
 40
2.8346
 41
2.8346
  0
VERTEX
  8
0
 10
112.158
 20
97.0737
 30
0.0
 40
2.8346
 41
2.8346
  0
VERTEX
  8
0
 10
113.81
 20
91.7529
 30
0.0
 40
2.8346
 41
2.8346
  0
VERTEX
  8
0
 10
114.386
 20
86.04
 30
0.0
 40
2.8346
 41
2.8346
  0
SEQEND
  8
0
  0
POLYLINE
8
0
 62
     7
 66
     1
 10
0
 20
0
 30
0.0
 40
0
 41
0
  0
VERTEX
  8
0
 10
1021.46
 20
171.078
 30
0.0
 40
0
 41
0
  0
VERTEX
  8
0
 10
1020.88
 20
165.365
 30
0.0
 40
0
 41
0
  0
VERTEX
  8
0
 10
1019.23
 20
160.045
 30
0.0
 40
0
 41
0
  0
VERTEX
  8
0
 10
1016.62
 20
155.23
 30
0.0
 40
0
 41
0
  0
VERTEX
  8
0
 10
1013.16
 20
151.035
 30
0.0
 40
0
 41
0
  0
VERTEX
  8
0
 10
1008.96
 20
147.573
 30
0.0
 40
0
 41
0
  0
VERTEX
  8
0
 10
1004.15
 20
144.96
 30
0.0
 40
0
 41
0
  0
VERTEX
  8
0
 10
998.825
 20
143.308
 30
0.0
 40
0
 41
0
  0
VERTEX
  8
0
 10
993.112
 20
142.732
 30
0.0
 40
0
 41
0
  0
VERTEX
  8
0
 10
987.399
 20
143.308
 30
0.0
 40
0
 41
0
  0
VERTEX
  8
0
 10
982.078
 20
144.96
 30
0.0
 40
0
 41
0
  0
VERTEX
  8
0
 10
977.263
 20
147.573
 30
0.0
 40
0
 41
0
  0
VERTEX
  8
0
 10
973.068
 20
151.035
 30
0.0
 40
0
 41
0
  0
VERTEX
  8
0
 10
969.607
 20
155.23
 30
0.0
 40
0
 41
0
  0
VERTEX
  8
0
 10
966.994
 20
160.045
 30
0.0
 40
0
 41
0
  0
VERTEX
  8
0
 10
965.342
 20
165.365
 30
0.0
 40
0
 41
0
  0
VERTEX
  8
0
 10
964.766
 20
171.078
 30
0.0
 40
0
 41
0
  0
VERTEX
  8
0
 10
965.342
 20
176.791
 30
0.0
 40
0
 41
0
  0
VERTEX
  8
0
 10
966.994
 20
182.112
 30
0.0
 40
0
 41
0
  0
VERTEX
  8
0
 10
969.607
 20
186.927
 30
0.0
 40
0
 41
0
  0
VERTEX
  8
0
 10
973.068
 20
191.122
 30
0.0
 40
0
 41
0
  0
VERTEX
  8
0
 10
977.263
 20
194.583
 30
0.0
 40
0
 41
0
  0
VERTEX
  8
0
 10
982.078
 20
197.197
 30
0.0
 40
0
 41
0
  0
VERTEX
  8
0
 10
987.399
 20
198.848
 30
0.0
 40
0
 41
0
  0
VERTEX
  8
0
 10
993.112
 20
199.424
 30
0.0
 40
0
 41
0
  0
VERTEX
  8
0
 10
998.825
 20
198.848
 30
0.0
 40
0
 41
0
  0
VERTEX
  8
0
 10
1004.15
 20
197.197
 30
0.0
 40
0
 41
0
  0
VERTEX
  8
0
 10
1008.96
 20
194.583
 30
0.0
 40
0
 41
0
  0
VERTEX
  8
0
 10
1013.16
 20
191.122
 30
0.0
 40
0
 41
0
  0
VERTEX
  8
0
 10
1016.62
 20
186.927
 30
0.0
 40
0
 41
0
  0
VERTEX
  8
0
 10
1019.23
 20
182.112
 30
0.0
 40
0
 41
0
  0
VERTEX
  8
0
 10
1020.88
 20
176.791
 30
0.0
 40
0
 41
0
  0
VERTEX
  8
0
 10
1021.46
 20
171.078
 30
0.0
 40
0
 41
0
  0
SEQEND
  8
0
  0
POLYLINE
8
0
 62
     0
 66
     1
 10
0
 20
0
 30
0.0
 70
     1
 40
2.8346
 41
2.8346
  0
VERTEX
  8
0
 10
1021.46
 20
171.078
 30
0.0
 40
2.8346
 41
2.8346
  0
VERTEX
  8
0
 10
1020.88
 20
165.365
 30
0.0
 40
2.8346
 41
2.8346
  0
VERTEX
  8
0
 10
1019.23
 20
160.045
 30
0.0
 40
2.8346
 41
2.8346
  0
VERTEX
  8
0
 10
1016.62
 20
155.23
 30
0.0
 40
2.8346
 41
2.8346
  0
VERTEX
  8
0
 10
1013.16
 20
151.035
 30
0.0
 40
2.8346
 41
2.8346
  0
VERTEX
  8
0
 10
1008.96
 20
147.573
 30
0.0
 40
2.8346
 41
2.8346
  0
VERTEX
  8
0
 10
1004.15
 20
144.96
 30
0.0
 40
2.8346
 41
2.8346
  0
VERTEX
  8
0
 10
998.825
 20
143.308
 30
0.0
 40
2.8346
 41
2.8346
  0
VERTEX
  8
0
 10
993.112
 20
142.732
 30
0.0
 40
2.8346
 41
2.8346
  0
VERTEX
  8
0
 10
987.399
 20
143.308
 30
0.0
 40
2.8346
 41
2.8346
  0
VERTEX
  8
0
 10
982.078
 20
144.96
 30
0.0
 40
2.8346
 41
2.8346
  0
VERTEX
  8
0
 10
977.263
 20
147.573
 30
0.0
 40
2.8346
 41
2.8346
  0
VERTEX
  8
0
 10
973.068
 20
151.035
 30
0.0
 40
2.8346
 41
2.8346
  0
VERTEX
  8
0
 10
969.607
 20
155.23
 30
0.0
 40
2.8346
 41
2.8346
  0
VERTEX
  8
0
 10
966.994
 20
160.045
 30
0.0
 40
2.8346
 41
2.8346
  0
VERTEX
  8
0
 10
965.342
 20
165.365
 30
0.0
 40
2.8346
 41
2.8346
  0
VERTEX
  8
0
 10
964.766
 20
171.078
 30
0.0
 40
2.8346
 41
2.8346
  0
VERTEX
  8
0
 10
965.342
 20
176.791
 30
0.0
 40
2.8346
 41
2.8346
  0
VERTEX
  8
0
 10
966.994
 20
182.112
 30
0.0
 40
2.8346
 41
2.8346
  0
VERTEX
  8
0
 10
969.607
 20
186.927
 30
0.0
 40
2.8346
 41
2.8346
  0
VERTEX
  8
0
 10
973.068
 20
191.122
 30
0.0
 40
2.8346
 41
2.8346
  0
VERTEX
  8
0
 10
977.263
 20
194.583
 30
0.0
 40
2.8346
 41
2.8346
  0
VERTEX
  8
0
 10
982.078
 20
197.197
 30
0.0
 40
2.8346
 41
2.8346
  0
VERTEX
  8
0
 10
987.399
 20
198.848
 30
0.0
 40
2.8346
 41
2.8346
  0
VERTEX
  8
0
 10
993.112
 20
199.424
 30
0.0
 40
2.8346
 41
2.8346
  0
VERTEX
  8
0
 10
998.825
 20
198.848
 30
0.0
 40
2.8346
 41
2.8346
  0
VERTEX
  8
0
 10
1004.15
 20
197.197
 30
0.0
 40
2.8346
 41
2.8346
  0
VERTEX
  8
0
 10
1008.96
 20
194.583
 30
0.0
 40
2.8346
 41
2.8346
  0
VERTEX
  8
0
 10
1013.16
 20
191.122
 30
0.0
 40
2.8346
 41
2.8346
  0
VERTEX
  8
0
 10
1016.62
 20
186.927
 30
0.0
 40
2.8346
 41
2.8346
  0
VERTEX
  8
0
 10
1019.23
 20
182.112
 30
0.0
 40
2.8346
 41
2.8346
  0
VERTEX
  8
0
 10
1020.88
 20
176.791
 30
0.0
 40
2.8346
 41
2.8346
  0
VERTEX
  8
0
 10
1021.46
 20
171.078
 30
0.0
 40
2.8346
 41
2.8346
  0
SEQEND
  8
0
  0
POLYLINE
8
0
 62
     7
 66
     1
 10
0
 20
0
 30
0.0
 40
0
 41
0
  0
VERTEX
  8
0
 10
1474.99
 20
312.808
 30
0.0
 40
0
 41
0
  0
VERTEX
  8
0
 10
1474.42
 20
307.095
 30
0.0
 40
0
 41
0
  0
VERTEX
  8
0
 10
1472.77
 20
301.775
 30
0.0
 40
0
 41
0
  0
VERTEX
  8
0
 10
1470.15
 20
296.96
 30
0.0
 40
0
 41
0
  0
VERTEX
  8
0
 10
1466.69
 20
292.765
 30
0.0
 40
0
 41
0
  0
VERTEX
  8
0
 10
1462.5
 20
289.303
 30
0.0
 40
0
 41
0
  0
VERTEX
  8
0
 10
1457.68
 20
286.69
 30
0.0
 40
0
 41
0
  0
VERTEX
  8
0
 10
1452.36
 20
285.038
 30
0.0
 40
0
 41
0
  0
VERTEX
  8
0
 10
1446.65
 20
284.462
 30
0.0
 40
0
 41
0
  0
VERTEX
  8
0
 10
1440.94
 20
285.038
 30
0.0
 40
0
 41
0
  0
VERTEX
  8
0
 10
1435.61
 20
286.69
 30
0.0
 40
0
 41
0
  0
VERTEX
  8
0
 10
1430.8
 20
289.303
 30
0.0
 40
0
 41
0
  0
VERTEX
  8
0
 10
1426.6
 20
292.765
 30
0.0
 40
0
 41
0
  0
VERTEX
  8
0
 10
1423.14
 20
296.96
 30
0.0
 40
0
 41
0
  0
VERTEX
  8
0
 10
1420.53
 20
301.775
 30
0.0
 40
0
 41
0
  0
VERTEX
  8
0
 10
1418.88
 20
307.095
 30
0.0
 40
0
 41
0
  0
VERTEX
  8
0
 10
1418.3
 20
312.808
 30
0.0
 40
0
 41
0
  0
VERTEX
  8
0
 10
1418.88
 20
318.521
 30
0.0
 40
0
 41
0
  0
VERTEX
  8
0
 10
1420.53
 20
323.842
 30
0.0
 40
0
 41
0
  0
VERTEX
  8
0
 10
1423.14
 20
328.657
 30
0.0
 40
0
 41
0
  0
VERTEX
  8
0
 10
1426.6
 20
332.852
 30
0.0
 40
0
 41
0
  0
VERTEX
  8
0
 10
1430.8
 20
336.313
 30
0.0
 40
0
 41
0
  0
VERTEX
  8
0
 10
1435.61
 20
338.927
 30
0.0
 40
0
 41
0
  0
VERTEX
  8
0
 10
1440.94
 20
340.578
 30
0.0
 40
0
 41
0
  0
VERTEX
  8
0
 10
1446.65
 20
341.154
 30
0.0
 40
0
 41
0
  0
VERTEX
  8
0
 10
1452.36
 20
340.578
 30
0.0
 40
0
 41
0
  0
VERTEX
  8
0
 10
1457.68
 20
338.927
 30
0.0
 40
0
 41
0
  0
VERTEX
  8
0
 10
1462.5
 20
336.313
 30
0.0
 40
0
 41
0
  0
VERTEX
  8
0
 10
1466.69
 20
332.852
 30
0.0
 40
0
 41
0
  0
VERTEX
  8
0
 10
1470.15
 20
328.657
 30
0.0
 40
0
 41
0
  0
VERTEX
  8
0
 10
1472.77
 20
323.842
 30
0.0
 40
0
 41
0
  0
VERTEX
  8
0
 10
1474.42
 20
318.521
 30
0.0
 40
0
 41
0
  0
VERTEX
  8
0
 10
1474.99
 20
312.808
 30
0.0
 40
0
 41
0
  0
SEQEND
  8
0
  0
POLYLINE
8
0
 62
     0
 66
     1
 10
0
 20
0
 30
0.0
 70
     1
 40
2.8346
 41
2.8346
  0
VERTEX
  8
0
 10
1474.99
 20
312.808
 30
0.0
 40
2.8346
 41
2.8346
  0
VERTEX
  8
0
 10
1474.42
 20
307.095
 30
0.0
 40
2.8346
 41
2.8346
  0
VERTEX
  8
0
 10
1472.77
 20
301.775
 30
0.0
 40
2.8346
 41
2.8346
  0
VERTEX
  8
0
 10
1470.15
 20
296.96
 30
0.0
 40
2.8346
 41
2.8346
  0
VERTEX
  8
0
 10
1466.69
 20
292.765
 30
0.0
 40
2.8346
 41
2.8346
  0
VERTEX
  8
0
 10
1462.5
 20
289.303
 30
0.0
 40
2.8346
 41
2.8346
  0
VERTEX
  8
0
 10
1457.68
 20
286.69
 30
0.0
 40
2.8346
 41
2.8346
  0
VERTEX
  8
0
 10
1452.36
 20
285.038
 30
0.0
 40
2.8346
 41
2.8346
  0
VERTEX
  8
0
 10
1446.65
 20
284.462
 30
0.0
 40
2.8346
 41
2.8346
  0
VERTEX
  8
0
 10
1440.94
 20
285.038
 30
0.0
 40
2.8346
 41
2.8346
  0
VERTEX
  8
0
 10
1435.61
 20
286.69
 30
0.0
 40
2.8346
 41
2.8346
  0
VERTEX
  8
0
 10
1430.8
 20
289.303
 30
0.0
 40
2.8346
 41
2.8346
  0
VERTEX
  8
0
 10
1426.6
 20
292.765
 30
0.0
 40
2.8346
 41
2.8346
  0
VERTEX
  8
0
 10
1423.14
 20
296.96
 30
0.0
 40
2.8346
 41
2.8346
  0
VERTEX
  8
0
 10
1420.53
 20
301.775
 30
0.0
 40
2.8346
 41
2.8346
  0
VERTEX
  8
0
 10
1418.88
 20
307.095
 30
0.0
 40
2.8346
 41
2.8346
  0
VERTEX
  8
0
 10
1418.3
 20
312.808
 30
0.0
 40
2.8346
 41
2.8346
  0
VERTEX
  8
0
 10
1418.88
 20
318.521
 30
0.0
 40
2.8346
 41
2.8346
  0
VERTEX
  8
0
 10
1420.53
 20
323.842
 30
0.0
 40
2.8346
 41
2.8346
  0
VERTEX
  8
0
 10
1423.14
 20
328.657
 30
0.0
 40
2.8346
 41
2.8346
  0
VERTEX
  8
0
 10
1426.6
 20
332.852
 30
0.0
 40
2.8346
 41
2.8346
  0
VERTEX
  8
0
 10
1430.8
 20
336.313
 30
0.0
 40
2.8346
 41
2.8346
  0
VERTEX
  8
0
 10
1435.61
 20
338.927
 30
0.0
 40
2.8346
 41
2.8346
  0
VERTEX
  8
0
 10
1440.94
 20
340.578
 30
0.0
 40
2.8346
 41
2.8346
  0
VERTEX
  8
0
 10
1446.65
 20
341.154
 30
0.0
 40
2.8346
 41
2.8346
  0
VERTEX
  8
0
 10
1452.36
 20
340.578
 30
0.0
 40
2.8346
 41
2.8346
  0
VERTEX
  8
0
 10
1457.68
 20
338.927
 30
0.0
 40
2.8346
 41
2.8346
  0
VERTEX
  8
0
 10
1462.5
 20
336.313
 30
0.0
 40
2.8346
 41
2.8346
  0
VERTEX
  8
0
 10
1466.69
 20
332.852
 30
0.0
 40
2.8346
 41
2.8346
  0
VERTEX
  8
0
 10
1470.15
 20
328.657
 30
0.0
 40
2.8346
 41
2.8346
  0
VERTEX
  8
0
 10
1472.77
 20
323.842
 30
0.0
 40
2.8346
 41
2.8346
  0
VERTEX
  8
0
 10
1474.42
 20
318.521
 30
0.0
 40
2.8346
 41
2.8346
  0
VERTEX
  8
0
 10
1474.99
 20
312.808
 30
0.0
 40
2.8346
 41
2.8346
  0
SEQEND
  8
0
  0
POLYLINE
8
0
 62
     7
 66
     1
 10
0
 20
0
 30
0.0
 40
0
 41
0
  0
VERTEX
  8
0
 10
341.154
 20
227.77
 30
0.0
 40
0
 41
0
  0
VERTEX
  8
0
 10
340.578
 20
222.057
 30
0.0
 40
0
 41
0
  0
VERTEX
  8
0
 10
338.926
 20
216.737
 30
0.0
 40
0
 41
0
  0
VERTEX
  8
0
 10
336.313
 20
211.922
 30
0.0
 40
0
 41
0
  0
VERTEX
  8
0
 10
332.852
 20
207.727
 30
0.0
 40
0
 41
0
  0
VERTEX
  8
0
 10
328.656
 20
204.265
 30
0.0
 40
0
 41
0
  0
VERTEX
  8
0
 10
323.842
 20
201.652
 30
0.0
 40
0
 41
0
  0
VERTEX
  8
0
 10
318.521
 20
200
 30
0.0
 40
0
 41
0
  0
VERTEX
  8
0
 10
312.808
 20
199.424
 30
0.0
 40
0
 41
0
  0
VERTEX
  8
0
 10
307.095
 20
200
 30
0.0
 40
0
 41
0
  0
VERTEX
  8
0
 10
301.774
 20
201.652
 30
0.0
 40
0
 41
0
  0
VERTEX
  8
0
 10
296.959
 20
204.265
 30
0.0
 40
0
 41
0
  0
VERTEX
  8
0
 10
292.764
 20
207.727
 30
0.0
 40
0
 41
0
  0
VERTEX
  8
0
 10
289.303
 20
211.922
 30
0.0
 40
0
 41
0
  0
VERTEX
  8
0
 10
286.69
 20
216.737
 30
0.0
 40
0
 41
0
  0
VERTEX
  8
0
 10
285.038
 20
222.057
 30
0.0
 40
0
 41
0
  0
VERTEX
  8
0
 10
284.462
 20
227.77
 30
0.0
 40
0
 41
0
  0
VERTEX
  8
0
 10
285.038
 20
233.483
 30
0.0
 40
0
 41
0
  0
VERTEX
  8
0
 10
286.69
 20
238.804
 30
0.0
 40
0
 41
0
  0
VERTEX
  8
0
 10
289.303
 20
243.619
 30
0.0
 40
0
 41
0
  0
VERTEX
  8
0
 10
292.764
 20
247.814
 30
0.0
 40
0
 41
0
  0
VERTEX
  8
0
 10
296.959
 20
251.275
 30
0.0
 40
0
 41
0
  0
VERTEX
  8
0
 10
301.774
 20
253.888
 30
0.0
 40
0
 41
0
  0
VERTEX
  8
0
 10
307.095
 20
255.54
 30
0.0
 40
0
 41
0
  0
VERTEX
  8
0
 10
312.808
 20
256.116
 30
0.0
 40
0
 41
0
  0
VERTEX
  8
0
 10
318.521
 20
255.54
 30
0.0
 40
0
 41
0
  0
VERTEX
  8
0
 10
323.842
 20
253.888
 30
0.0
 40
0
 41
0
  0
VERTEX
  8
0
 10
328.656
 20
251.275
 30
0.0
 40
0
 41
0
  0
VERTEX
  8
0
 10
332.852
 20
247.814
 30
0.0
 40
0
 41
0
  0
VERTEX
  8
0
 10
336.313
 20
243.619
 30
0.0
 40
0
 41
0
  0
VERTEX
  8
0
 10
338.926
 20
238.804
 30
0.0
 40
0
 41
0
  0
VERTEX
  8
0
 10
340.578
 20
233.483
 30
0.0
 40
0
 41
0
  0
VERTEX
  8
0
 10
341.154
 20
227.77
 30
0.0
 40
0
 41
0
  0
SEQEND
  8
0
  0
POLYLINE
8
0
 62
     0
 66
     1
 10
0
 20
0
 30
0.0
 70
     1
 40
2.8346
 41
2.8346
  0
VERTEX
  8
0
 10
341.154
 20
227.77
 30
0.0
 40
2.8346
 41
2.8346
  0
VERTEX
  8
0
 10
340.578
 20
222.057
 30
0.0
 40
2.8346
 41
2.8346
  0
VERTEX
  8
0
 10
338.926
 20
216.737
 30
0.0
 40
2.8346
 41
2.8346
  0
VERTEX
  8
0
 10
336.313
 20
211.922
 30
0.0
 40
2.8346
 41
2.8346
  0
VERTEX
  8
0
 10
332.852
 20
207.727
 30
0.0
 40
2.8346
 41
2.8346
  0
VERTEX
  8
0
 10
328.656
 20
204.265
 30
0.0
 40
2.8346
 41
2.8346
  0
VERTEX
  8
0
 10
323.842
 20
201.652
 30
0.0
 40
2.8346
 41
2.8346
  0
VERTEX
  8
0
 10
318.521
 20
200
 30
0.0
 40
2.8346
 41
2.8346
  0
VERTEX
  8
0
 10
312.808
 20
199.424
 30
0.0
 40
2.8346
 41
2.8346
  0
VERTEX
  8
0
 10
307.095
 20
200
 30
0.0
 40
2.8346
 41
2.8346
  0
VERTEX
  8
0
 10
301.774
 20
201.652
 30
0.0
 40
2.8346
 41
2.8346
  0
VERTEX
  8
0
 10
296.959
 20
204.265
 30
0.0
 40
2.8346
 41
2.8346
  0
VERTEX
  8
0
 10
292.764
 20
207.727
 30
0.0
 40
2.8346
 41
2.8346
  0
VERTEX
  8
0
 10
289.303
 20
211.922
 30
0.0
 40
2.8346
 41
2.8346
  0
VERTEX
  8
0
 10
286.69
 20
216.737
 30
0.0
 40
2.8346
 41
2.8346
  0
VERTEX
  8
0
 10
285.038
 20
222.057
 30
0.0
 40
2.8346
 41
2.8346
  0
VERTEX
  8
0
 10
284.462
 20
227.77
 30
0.0
 40
2.8346
 41
2.8346
  0
VERTEX
  8
0
 10
285.038
 20
233.483
 30
0.0
 40
2.8346
 41
2.8346
  0
VERTEX
  8
0
 10
286.69
 20
238.804
 30
0.0
 40
2.8346
 41
2.8346
  0
VERTEX
  8
0
 10
289.303
 20
243.619
 30
0.0
 40
2.8346
 41
2.8346
  0
VERTEX
  8
0
 10
292.764
 20
247.814
 30
0.0
 40
2.8346
 41
2.8346
  0
VERTEX
  8
0
 10
296.959
 20
251.275
 30
0.0
 40
2.8346
 41
2.8346
  0
VERTEX
  8
0
 10
301.774
 20
253.888
 30
0.0
 40
2.8346
 41
2.8346
  0
VERTEX
  8
0
 10
307.095
 20
255.54
 30
0.0
 40
2.8346
 41
2.8346
  0
VERTEX
  8
0
 10
312.808
 20
256.116
 30
0.0
 40
2.8346
 41
2.8346
  0
VERTEX
  8
0
 10
318.521
 20
255.54
 30
0.0
 40
2.8346
 41
2.8346
  0
VERTEX
  8
0
 10
323.842
 20
253.888
 30
0.0
 40
2.8346
 41
2.8346
  0
VERTEX
  8
0
 10
328.656
 20
251.275
 30
0.0
 40
2.8346
 41
2.8346
  0
VERTEX
  8
0
 10
332.852
 20
247.814
 30
0.0
 40
2.8346
 41
2.8346
  0
VERTEX
  8
0
 10
336.313
 20
243.619
 30
0.0
 40
2.8346
 41
2.8346
  0
VERTEX
  8
0
 10
338.926
 20
238.804
 30
0.0
 40
2.8346
 41
2.8346
  0
VERTEX
  8
0
 10
340.578
 20
233.483
 30
0.0
 40
2.8346
 41
2.8346
  0
VERTEX
  8
0
 10
341.154
 20
227.77
 30
0.0
 40
2.8346
 41
2.8346
  0
SEQEND
  8
0
  0
POLYLINE
8
0
 62
     7
 66
     1
 10
0
 20
0
 30
0.0
 40
0
 41
0
  0
VERTEX
  8
0
 10
794.69
 20
171.078
 30
0.0
 40
0
 41
0
  0
VERTEX
  8
0
 10
794.114
 20
165.365
 30
0.0
 40
0
 41
0
  0
VERTEX
  8
0
 10
792.462
 20
160.045
 30
0.0
 40
0
 41
0
  0
VERTEX
  8
0
 10
789.849
 20
155.23
 30
0.0
 40
0
 41
0
  0
VERTEX
  8
0
 10
786.387
 20
151.035
 30
0.0
 40
0
 41
0
  0
VERTEX
  8
0
 10
782.192
 20
147.573
 30
0.0
 40
0
 41
0
  0
VERTEX
  8
0
 10
777.377
 20
144.96
 30
0.0
 40
0
 41
0
  0
VERTEX
  8
0
 10
772.057
 20
143.308
 30
0.0
 40
0
 41
0
  0
VERTEX
  8
0
 10
766.344
 20
142.732
 30
0.0
 40
0
 41
0
  0
VERTEX
  8
0
 10
760.631
 20
143.308
 30
0.0
 40
0
 41
0
  0
VERTEX
  8
0
 10
755.31
 20
144.96
 30
0.0
 40
0
 41
0
  0
VERTEX
  8
0
 10
750.495
 20
147.573
 30
0.0
 40
0
 41
0
  0
VERTEX
  8
0
 10
746.3
 20
151.035
 30
0.0
 40
0
 41
0
  0
VERTEX
  8
0
 10
742.839
 20
155.23
 30
0.0
 40
0
 41
0
  0
VERTEX
  8
0
 10
740.226
 20
160.045
 30
0.0
 40
0
 41
0
  0
VERTEX
  8
0
 10
738.574
 20
165.365
 30
0.0
 40
0
 41
0
  0
VERTEX
  8
0
 10
737.998
 20
171.078
 30
0.0
 40
0
 41
0
  0
VERTEX
  8
0
 10
738.574
 20
176.791
 30
0.0
 40
0
 41
0
  0
VERTEX
  8
0
 10
740.226
 20
182.112
 30
0.0
 40
0
 41
0
  0
VERTEX
  8
0
 10
742.839
 20
186.927
 30
0.0
 40
0
 41
0
  0
VERTEX
  8
0
 10
746.3
 20
191.122
 30
0.0
 40
0
 41
0
  0
VERTEX
  8
0
 10
750.495
 20
194.583
 30
0.0
 40
0
 41
0
  0
VERTEX
  8
0
 10
755.31
 20
197.197
 30
0.0
 40
0
 41
0
  0
VERTEX
  8
0
 10
760.631
 20
198.848
 30
0.0
 40
0
 41
0
  0
VERTEX
  8
0
 10
766.344
 20
199.424
 30
0.0
 40
0
 41
0
  0
VERTEX
  8
0
 10
772.057
 20
198.848
 30
0.0
 40
0
 41
0
  0
VERTEX
  8
0
 10
777.377
 20
197.197
 30
0.0
 40
0
 41
0
  0
VERTEX
  8
0
 10
782.192
 20
194.583
 30
0.0
 40
0
 41
0
  0
VERTEX
  8
0
 10
786.387
 20
191.122
 30
0.0
 40
0
 41
0
  0
VERTEX
  8
0
 10
789.849
 20
186.927
 30
0.0
 40
0
 41
0
  0
VERTEX
  8
0
 10
792.462
 20
182.112
 30
0.0
 40
0
 41
0
  0
VERTEX
  8
0
 10
794.114
 20
176.791
 30
0.0
 40
0
 41
0
  0
VERTEX
  8
0
 10
794.69
 20
171.078
 30
0.0
 40
0
 41
0
  0
SEQEND
  8
0
  0
POLYLINE
8
0
 62
     0
 66
     1
 10
0
 20
0
 30
0.0
 70
     1
 40
2.8346
 41
2.8346
  0
VERTEX
  8
0
 10
794.69
 20
171.078
 30
0.0
 40
2.8346
 41
2.8346
  0
VERTEX
  8
0
 10
794.114
 20
165.365
 30
0.0
 40
2.8346
 41
2.8346
  0
VERTEX
  8
0
 10
792.462
 20
160.045
 30
0.0
 40
2.8346
 41
2.8346
  0
VERTEX
  8
0
 10
789.849
 20
155.23
 30
0.0
 40
2.8346
 41
2.8346
  0
VERTEX
  8
0
 10
786.387
 20
151.035
 30
0.0
 40
2.8346
 41
2.8346
  0
VERTEX
  8
0
 10
782.192
 20
147.573
 30
0.0
 40
2.8346
 41
2.8346
  0
VERTEX
  8
0
 10
777.377
 20
144.96
 30
0.0
 40
2.8346
 41
2.8346
  0
VERTEX
  8
0
 10
772.057
 20
143.308
 30
0.0
 40
2.8346
 41
2.8346
  0
VERTEX
  8
0
 10
766.344
 20
142.732
 30
0.0
 40
2.8346
 41
2.8346
  0
VERTEX
  8
0
 10
760.631
 20
143.308
 30
0.0
 40
2.8346
 41
2.8346
  0
VERTEX
  8
0
 10
755.31
 20
144.96
 30
0.0
 40
2.8346
 41
2.8346
  0
VERTEX
  8
0
 10
750.495
 20
147.573
 30
0.0
 40
2.8346
 41
2.8346
  0
VERTEX
  8
0
 10
746.3
 20
151.035
 30
0.0
 40
2.8346
 41
2.8346
  0
VERTEX
  8
0
 10
742.839
 20
155.23
 30
0.0
 40
2.8346
 41
2.8346
  0
VERTEX
  8
0
 10
740.226
 20
160.045
 30
0.0
 40
2.8346
 41
2.8346
  0
VERTEX
  8
0
 10
738.574
 20
165.365
 30
0.0
 40
2.8346
 41
2.8346
  0
VERTEX
  8
0
 10
737.998
 20
171.078
 30
0.0
 40
2.8346
 41
2.8346
  0
VERTEX
  8
0
 10
738.574
 20
176.791
 30
0.0
 40
2.8346
 41
2.8346
  0
VERTEX
  8
0
 10
740.226
 20
182.112
 30
0.0
 40
2.8346
 41
2.8346
  0
VERTEX
  8
0
 10
742.839
 20
186.927
 30
0.0
 40
2.8346
 41
2.8346
  0
VERTEX
  8
0
 10
746.3
 20
191.122
 30
0.0
 40
2.8346
 41
2.8346
  0
VERTEX
  8
0
 10
750.495
 20
194.583
 30
0.0
 40
2.8346
 41
2.8346
  0
VERTEX
  8
0
 10
755.31
 20
197.197
 30
0.0
 40
2.8346
 41
2.8346
  0
VERTEX
  8
0
 10
760.631
 20
198.848
 30
0.0
 40
2.8346
 41
2.8346
  0
VERTEX
  8
0
 10
766.344
 20
199.424
 30
0.0
 40
2.8346
 41
2.8346
  0
VERTEX
  8
0
 10
772.057
 20
198.848
 30
0.0
 40
2.8346
 41
2.8346
  0
VERTEX
  8
0
 10
777.377
 20
197.197
 30
0.0
 40
2.8346
 41
2.8346
  0
VERTEX
  8
0
 10
782.192
 20
194.583
 30
0.0
 40
2.8346
 41
2.8346
  0
VERTEX
  8
0
 10
786.387
 20
191.122
 30
0.0
 40
2.8346
 41
2.8346
  0
VERTEX
  8
0
 10
789.849
 20
186.927
 30
0.0
 40
2.8346
 41
2.8346
  0
VERTEX
  8
0
 10
792.462
 20
182.112
 30
0.0
 40
2.8346
 41
2.8346
  0
VERTEX
  8
0
 10
794.114
 20
176.791
 30
0.0
 40
2.8346
 41
2.8346
  0
VERTEX
  8
0
 10
794.69
 20
171.078
 30
0.0
 40
2.8346
 41
2.8346
  0
SEQEND
  8
0
  0
POLYLINE
8
0
 62
     7
 66
     1
 10
0
 20
0
 30
0.0
 40
0
 41
0
  0
VERTEX
  8
0
 10
1248.23
 20
199.424
 30
0.0
 40
0
 41
0
  0
VERTEX
  8
0
 10
1247.65
 20
193.711
 30
0.0
 40
0
 41
0
  0
VERTEX
  8
0
 10
1246
 20
188.391
 30
0.0
 40
0
 41
0
  0
VERTEX
  8
0
 10
1243.39
 20
183.576
 30
0.0
 40
0
 41
0
  0
VERTEX
  8
0
 10
1239.92
 20
179.381
 30
0.0
 40
0
 41
0
  0
VERTEX
  8
0
 10
1235.73
 20
175.919
 30
0.0
 40
0
 41
0
  0
VERTEX
  8
0
 10
1230.91
 20
173.306
 30
0.0
 40
0
 41
0
  0
VERTEX
  8
0
 10
1225.59
 20
171.654
 30
0.0
 40
0
 41
0
  0
VERTEX
  8
0
 10
1219.88
 20
171.078
 30
0.0
 40
0
 41
0
  0
VERTEX
  8
0
 10
1214.17
 20
171.654
 30
0.0
 40
0
 41
0
  0
VERTEX
  8
0
 10
1208.85
 20
173.306
 30
0.0
 40
0
 41
0
  0
VERTEX
  8
0
 10
1204.03
 20
175.919
 30
0.0
 40
0
 41
0
  0
VERTEX
  8
0
 10
1199.84
 20
179.381
 30
0.0
 40
0
 41
0
  0
VERTEX
  8
0
 10
1196.38
 20
183.576
 30
0.0
 40
0
 41
0
  0
VERTEX
  8
0
 10
1193.76
 20
188.391
 30
0.0
 40
0
 41
0
  0
VERTEX
  8
0
 10
1192.11
 20
193.711
 30
0.0
 40
0
 41
0
  0
VERTEX
  8
0
 10
1191.53
 20
199.424
 30
0.0
 40
0
 41
0
  0
VERTEX
  8
0
 10
1192.11
 20
205.137
 30
0.0
 40
0
 41
0
  0
VERTEX
  8
0
 10
1193.76
 20
210.458
 30
0.0
 40
0
 41
0
  0
VERTEX
  8
0
 10
1196.38
 20
215.273
 30
0.0
 40
0
 41
0
  0
VERTEX
  8
0
 10
1199.84
 20
219.468
 30
0.0
 40
0
 41
0
  0
VERTEX
  8
0
 10
1204.03
 20
222.929
 30
0.0
 40
0
 41
0
  0
VERTEX
  8
0
 10
1208.85
 20
225.542
 30
0.0
 40
0
 41
0
  0
VERTEX
  8
0
 10
1214.17
 20
227.194
 30
0.0
 40
0
 41
0
  0
VERTEX
  8
0
 10
1219.88
 20
227.77
 30
0.0
 40
0
 41
0
  0
VERTEX
  8
0
 10
1225.59
 20
227.194
 30
0.0
 40
0
 41
0
  0
VERTEX
  8
0
 10
1230.91
 20
225.542
 30
0.0
 40
0
 41
0
  0
VERTEX
  8
0
 10
1235.73
 20
222.929
 30
0.0
 40
0
 41
0
  0
VERTEX
  8
0
 10
1239.92
 20
219.468
 30
0.0
 40
0
 41
0
  0
VERTEX
  8
0
 10
1243.39
 20
215.273
 30
0.0
 40
0
 41
0
  0
VERTEX
  8
0
 10
1246
 20
210.458
 30
0.0
 40
0
 41
0
  0
VERTEX
  8
0
 10
1247.65
 20
205.137
 30
0.0
 40
0
 41
0
  0
VERTEX
  8
0
 10
1248.23
 20
199.424
 30
0.0
 40
0
 41
0
  0
SEQEND
  8
0
  0
POLYLINE
8
0
 62
     0
 66
     1
 10
0
 20
0
 30
0.0
 70
     1
 40
2.8346
 41
2.8346
  0
VERTEX
  8
0
 10
1248.23
 20
199.424
 30
0.0
 40
2.8346
 41
2.8346
  0
VERTEX
  8
0
 10
1247.65
 20
193.711
 30
0.0
 40
2.8346
 41
2.8346
  0
VERTEX
  8
0
 10
1246
 20
188.391
 30
0.0
 40
2.8346
 41
2.8346
  0
VERTEX
  8
0
 10
1243.39
 20
183.576
 30
0.0
 40
2.8346
 41
2.8346
  0
VERTEX
  8
0
 10
1239.92
 20
179.381
 30
0.0
 40
2.8346
 41
2.8346
  0
VERTEX
  8
0
 10
1235.73
 20
175.919
 30
0.0
 40
2.8346
 41
2.8346
  0
VERTEX
  8
0
 10
1230.91
 20
173.306
 30
0.0
 40
2.8346
 41
2.8346
  0
VERTEX
  8
0
 10
1225.59
 20
171.654
 30
0.0
 40
2.8346
 41
2.8346
  0
VERTEX
  8
0
 10
1219.88
 20
171.078
 30
0.0
 40
2.8346
 41
2.8346
  0
VERTEX
  8
0
 10
1214.17
 20
171.654
 30
0.0
 40
2.8346
 41
2.8346
  0
VERTEX
  8
0
 10
1208.85
 20
173.306
 30
0.0
 40
2.8346
 41
2.8346
  0
VERTEX
  8
0
 10
1204.03
 20
175.919
 30
0.0
 40
2.8346
 41
2.8346
  0
VERTEX
  8
0
 10
1199.84
 20
179.381
 30
0.0
 40
2.8346
 41
2.8346
  0
VERTEX
  8
0
 10
1196.38
 20
183.576
 30
0.0
 40
2.8346
 41
2.8346
  0
VERTEX
  8
0
 10
1193.76
 20
188.391
 30
0.0
 40
2.8346
 41
2.8346
  0
VERTEX
  8
0
 10
1192.11
 20
193.711
 30
0.0
 40
2.8346
 41
2.8346
  0
VERTEX
  8
0
 10
1191.53
 20
199.424
 30
0.0
 40
2.8346
 41
2.8346
  0
VERTEX
  8
0
 10
1192.11
 20
205.137
 30
0.0
 40
2.8346
 41
2.8346
  0
VERTEX
  8
0
 10
1193.76
 20
210.458
 30
0.0
 40
2.8346
 41
2.8346
  0
VERTEX
  8
0
 10
1196.38
 20
215.273
 30
0.0
 40
2.8346
 41
2.8346
  0
VERTEX
  8
0
 10
1199.84
 20
219.468
 30
0.0
 40
2.8346
 41
2.8346
  0
VERTEX
  8
0
 10
1204.03
 20
222.929
 30
0.0
 40
2.8346
 41
2.8346
  0
VERTEX
  8
0
 10
1208.85
 20
225.542
 30
0.0
 40
2.8346
 41
2.8346
  0
VERTEX
  8
0
 10
1214.17
 20
227.194
 30
0.0
 40
2.8346
 41
2.8346
  0
VERTEX
  8
0
 10
1219.88
 20
227.77
 30
0.0
 40
2.8346
 41
2.8346
  0
VERTEX
  8
0
 10
1225.59
 20
227.194
 30
0.0
 40
2.8346
 41
2.8346
  0
VERTEX
  8
0
 10
1230.91
 20
225.542
 30
0.0
 40
2.8346
 41
2.8346
  0
VERTEX
  8
0
 10
1235.73
 20
222.929
 30
0.0
 40
2.8346
 41
2.8346
  0
VERTEX
  8
0
 10
1239.92
 20
219.468
 30
0.0
 40
2.8346
 41
2.8346
  0
VERTEX
  8
0
 10
1243.39
 20
215.273
 30
0.0
 40
2.8346
 41
2.8346
  0
VERTEX
  8
0
 10
1246
 20
210.458
 30
0.0
 40
2.8346
 41
2.8346
  0
VERTEX
  8
0
 10
1247.65
 20
205.137
 30
0.0
 40
2.8346
 41
2.8346
  0
VERTEX
  8
0
 10
1248.23
 20
199.424
 30
0.0
 40
2.8346
 41
2.8346
  0
SEQEND
  8
0
  0
POLYLINE
8
0
 62
     0
 66
     1
 10
0
 20
0
 30
0.0
 40
2.8346
 41
2.8346
  0
VERTEX
  8
0
 10
86.0396
 20
86.0393
 30
0.0
 40
2.8346
 41
2.8346
  0
VERTEX
  8
0
 10
109.394
 20
110.836
 30
0.0
 40
2.8346
 41
2.8346
  0
VERTEX
  8
0
 10
134.407
 20
133.756
 30
0.0
 40
2.8346
 41
2.8346
  0
VERTEX
  8
0
 10
160.963
 20
154.725
 30
0.0
 40
2.8346
 41
2.8346
  0
VERTEX
  8
0
 10
188.945
 20
173.67
 30
0.0
 40
2.8346
 41
2.8346
  0
VERTEX
  8
0
 10
218.236
 20
190.521
 30
0.0
 40
2.8346
 41
2.8346
  0
VERTEX
  8
0
 10
248.721
 20
205.202
 30
0.0
 40
2.8346
 41
2.8346
  0
VERTEX
  8
0
 10
280.284
 20
217.643
 30
0.0
 40
2.8346
 41
2.8346
  0
VERTEX
  8
0
 10
312.807
 20
227.77
 30
0.0
 40
2.8346
 41
2.8346
  0
SEQEND
  8
0
  0
POLYLINE
8
0
 62
     0
 66
     1
 10
0
 20
0
 30
0.0
 40
2.8346
 41
2.8346
  0
VERTEX
  8
0
 10
312.807
 20
227.77
 30
0.0
 40
2.8346
 41
2.8346
  0
VERTEX
  8
0
 10
354.09
 20
241.591
 30
0.0
 40
2.8346
 41
2.8346
  0
VERTEX
  8
0
 10
396.382
 20
251.527
 30
0.0
 40
2.8346
 41
2.8346
  0
VERTEX
  8
0
 10
439.409
 20
257.526
 30
0.0
 40
2.8346
 41
2.8346
  0
VERTEX
  8
0
 10
482.898
 20
259.537
 30
0.0
 40
2.8346
 41
2.8346
  0
VERTEX
  8
0
 10
539.576
 20
256.116
 30
0.0
 40
2.8346
 41
2.8346
  0
SEQEND
  8
0
  0
POLYLINE
8
0
 62
     0
 66
     1
 10
0
 20
0
 30
0.0
 40
2.8346
 41
2.8346
  0
VERTEX
  8
0
 10
539.575
 20
256.116
 30
0.0
 40
2.8346
 41
2.8346
  0
VERTEX
  8
0
 10
569.736
 20
251.007
 30
0.0
 40
2.8346
 41
2.8346
  0
VERTEX
  8
0
 10
599.506
 20
244.272
 30
0.0
 40
2.8346
 41
2.8346
  0
VERTEX
  8
0
 10
628.821
 20
235.936
 30
0.0
 40
2.8346
 41
2.8346
  0
VERTEX
  8
0
 10
657.618
 20
226.023
 30
0.0
 40
2.8346
 41
2.8346
  0
VERTEX
  8
0
 10
685.833
 20
214.557
 30
0.0
 40
2.8346
 41
2.8346
  0
VERTEX
  8
0
 10
713.401
 20
201.562
 30
0.0
 40
2.8346
 41
2.8346
  0
VERTEX
  8
0
 10
740.259
 20
187.061
 30
0.0
 40
2.8346
 41
2.8346
  0
VERTEX
  8
0
 10
766.343
 20
171.079
 30
0.0
 40
2.8346
 41
2.8346
  0
SEQEND
  8
0
  0
POLYLINE
8
0
 62
     0
 66
     1
 10
0
 20
0
 30
0.0
 40
2.8346
 41
2.8346
  0
VERTEX
  8
0
 10
993.112
 20
171.078
 30
0.0
 40
2.8346
 41
2.8346
  0
VERTEX
  8
0
 10
966.236
 20
158.798
 30
0.0
 40
2.8346
 41
2.8346
  0
VERTEX
  8
0
 10
938.165
 20
149.926
 30
0.0
 40
2.8346
 41
2.8346
  0
VERTEX
  8
0
 10
909.221
 20
144.544
 30
0.0
 40
2.8346
 41
2.8346
  0
VERTEX
  8
0
 10
879.728
 20
142.732
 30
0.0
 40
2.8346
 41
2.8346
  0
VERTEX
  8
0
 10
850.235
 20
144.544
 30
0.0
 40
2.8346
 41
2.8346
  0
VERTEX
  8
0
 10
821.292
 20
149.926
 30
0.0
 40
2.8346
 41
2.8346
  0
VERTEX
  8
0
 10
793.221
 20
158.798
 30
0.0
 40
2.8346
 41
2.8346
  0
VERTEX
  8
0
 10
766.345
 20
171.078
 30
0.0
 40
2.8346
 41
2.8346
  0
SEQEND
  8
0
  0
POLYLINE
8
0
 62
     0
 66
     1
 10
0
 20
0
 30
0.0
 40
2.8346
 41
2.8346
  0
VERTEX
  8
0
 10
993.111
 20
171.078
 30
0.0
 40
2.8346
 41
2.8346
  0
VERTEX
  8
0
 10
1034.39
 20
184.899
 30
0.0
 40
2.8346
 41
2.8346
  0
VERTEX
  8
0
 10
1076.69
 20
194.835
 30
0.0
 40
2.8346
 41
2.8346
  0
VERTEX
  8
0
 10
1119.71
 20
200.834
 30
0.0
 40
2.8346
 41
2.8346
  0
VERTEX
  8
0
 10
1163.2
 20
202.845
 30
0.0
 40
2.8346
 41
2.8346
  0
VERTEX
  8
0
 10
1219.88
 20
199.424
 30
0.0
 40
2.8346
 41
2.8346
  0
SEQEND
  8
0
  0
POLYLINE
8
0
 62
     0
 66
     1
 10
0
 20
0
 30
0.0
 40
2.8346
 41
2.8346
  0
VERTEX
  8
0
 10
1446.65
 20
312.809
 30
0.0
 40
2.8346
 41
2.8346
  0
VERTEX
  8
0
 10
1424.78
 20
288.009
 30
0.0
 40
2.8346
 41
2.8346
  0
VERTEX
  8
0
 10
1400.53
 20
265.979
 30
0.0
 40
2.8346
 41
2.8346
  0
VERTEX
  8
0
 10
1374.16
 20
246.853
 30
0.0
 40
2.8346
 41
2.8346
  0
VERTEX
  8
0
 10
1345.94
 20
230.763
 30
0.0
 40
2.8346
 41
2.8346
  0
VERTEX
  8
0
 10
1316.14
 20
217.843
 30
0.0
 40
2.8346
 41
2.8346
  0
VERTEX
  8
0
 10
1285.02
 20
208.224
 30
0.0
 40
2.8346
 41
2.8346
  0
VERTEX
  8
0
 10
1252.84
 20
202.04
 30
0.0
 40
2.8346
 41
2.8346
  0
VERTEX
  8
0
 10
1219.88
 20
199.424
 30
0.0
 40
2.8346
 41
2.8346
  0
SEQEND
  8
0
  0
POLYLINE
8
0
 62
     0
 66
     1
 10
0
 20
0
 30
0.0
 40
1.4173
 41
1.4173
  0
VERTEX
  8
0
 10
114.386
 20
482.884
 30
0.0
 40
1.4173
 41
1.4173
  0
VERTEX
  8
0
 10
136.208
 20
483.28
 30
0.0
 40
1.4173
 41
1.4173
  0
VERTEX
  8
0
 10
159.078
 20
484.393
 30
0.0
 40
1.4173
 41
1.4173
  0
VERTEX
  8
0
 10
182.883
 20
486.107
 30
0.0
 40
1.4173
 41
1.4173
  0
VERTEX
  8
0
 10
207.507
 20
488.31
 30
0.0
 40
1.4173
 41
1.4173
  0
VERTEX
  8
0
 10
232.837
 20
490.886
 30
0.0
 40
1.4173
 41
1.4173
  0
VERTEX
  8
0
 10
258.76
 20
493.721
 30
0.0
 40
1.4173
 41
1.4173
  0
VERTEX
  8
0
 10
285.159
 20
496.702
 30
0.0
 40
1.4173
 41
1.4173
  0
VERTEX
  8
0
 10
311.922
 20
499.715
 30
0.0
 40
1.4173
 41
1.4173
  0
VERTEX
  8
0
 10
338.934
 20
502.644
 30
0.0
 40
1.4173
 41
1.4173
  0
VERTEX
  8
0
 10
366.081
 20
505.375
 30
0.0
 40
1.4173
 41
1.4173
  0
VERTEX
  8
0
 10
393.249
 20
507.796
 30
0.0
 40
1.4173
 41
1.4173
  0
VERTEX
  8
0
 10
420.323
 20
509.791
 30
0.0
 40
1.4173
 41
1.4173
  0
VERTEX
  8
0
 10
447.19
 20
511.246
 30
0.0
 40
1.4173
 41
1.4173
  0
VERTEX
  8
0
 10
473.735
 20
512.047
 30
0.0
 40
1.4173
 41
1.4173
  0
VERTEX
  8
0
 10
499.844
 20
512.08
 30
0.0
 40
1.4173
 41
1.4173
  0
VERTEX
  8
0
 10
525.403
 20
511.23
 30
0.0
 40
1.4173
 41
1.4173
  0
VERTEX
  8
0
 10
550.297
 20
509.384
 30
0.0
 40
1.4173
 41
1.4173
  0
VERTEX
  8
0
 10
574.413
 20
506.427
 30
0.0
 40
1.4173
 41
1.4173
  0
VERTEX
  8
0
 10
597.636
 20
502.246
 30
0.0
 40
1.4173
 41
1.4173
  0
VERTEX
  8
0
 10
619.853
 20
496.725
 30
0.0
 40
1.4173
 41
1.4173
  0
VERTEX
  8
0
 10
640.948
 20
489.751
 30
0.0
 40
1.4173
 41
1.4173
  0
VERTEX
  8
0
 10
660.808
 20
481.209
 30
0.0
 40
1.4173
 41
1.4173
  0
VERTEX
  8
0
 10
679.318
 20
470.986
 30
0.0
 40
1.4173
 41
1.4173
  0
VERTEX
  8
0
 10
696.365
 20
458.967
 30
0.0
 40
1.4173
 41
1.4173
  0
VERTEX
  8
0
 10
711.833
 20
445.038
 30
0.0
 40
1.4173
 41
1.4173
  0
VERTEX
  8
0
 10
725.61
 20
429.085
 30
0.0
 40
1.4173
 41
1.4173
  0
VERTEX
  8
0
 10
737.581
 20
410.993
 30
0.0
 40
1.4173
 41
1.4173
  0
VERTEX
  8
0
 10
747.631
 20
390.649
 30
0.0
 40
1.4173
 41
1.4173
  0
VERTEX
  8
0
 10
755.647
 20
367.938
 30
0.0
 40
1.4173
 41
1.4173
  0
VERTEX
  8
0
 10
761.513
 20
342.746
 30
0.0
 40
1.4173
 41
1.4173
  0
VERTEX
  8
0
 10
765.117
 20
314.959
 30
0.0
 40
1.4173
 41
1.4173
  0
VERTEX
  8
0
 10
766.344
 20
284.462
 30
0.0
 40
1.4173
 41
1.4173
  0
SEQEND
  8
0
  0
POLYLINE
8
0
 62
     0
 66
     1
 10
0
 20
0
 30
0.0
 40
1.4173
 41
1.4173
  0
VERTEX
  8
0
 10
539.576
 20
624.614
 30
0.0
 40
1.4173
 41
1.4173
  0
VERTEX
  8
0
 10
545.214
 20
619.535
 30
0.0
 40
1.4173
 41
1.4173
  0
VERTEX
  8
0
 10
551.465
 20
614.87
 30
0.0
 40
1.4173
 41
1.4173
  0
VERTEX
  8
0
 10
558.277
 20
610.538
 30
0.0
 40
1.4173
 41
1.4173
  0
VERTEX
  8
0
 10
565.597
 20
606.455
 30
0.0
 40
1.4173
 41
1.4173
  0
VERTEX
  8
0
 10
573.374
 20
602.538
 30
0.0
 40
1.4173
 41
1.4173
  0
VERTEX
  8
0
 10
581.555
 20
598.704
 30
0.0
 40
1.4173
 41
1.4173
  0
VERTEX
  8
0
 10
590.09
 20
594.87
 30
0.0
 40
1.4173
 41
1.4173
  0
VERTEX
  8
0
 10
598.926
 20
590.953
 30
0.0
 40
1.4173
 41
1.4173
  0
VERTEX
  8
0
 10
608.01
 20
586.87
 30
0.0
 40
1.4173
 41
1.4173
  0
VERTEX
  8
0
 10
617.292
 20
582.538
 30
0.0
 40
1.4173
 41
1.4173
  0
VERTEX
  8
0
 10
626.719
 20
577.874
 30
0.0
 40
1.4173
 41
1.4173
  0
VERTEX
  8
0
 10
636.24
 20
572.794
 30
0.0
 40
1.4173
 41
1.4173
  0
VERTEX
  8
0
 10
645.802
 20
567.216
 30
0.0
 40
1.4173
 41
1.4173
  0
VERTEX
  8
0
 10
655.354
 20
561.057
 30
0.0
 40
1.4173
 41
1.4173
  0
VERTEX
  8
0
 10
664.844
 20
554.234
 30
0.0
 40
1.4173
 41
1.4173
  0
VERTEX
  8
0
 10
674.219
 20
546.663
 30
0.0
 40
1.4173
 41
1.4173
  0
VERTEX
  8
0
 10
683.429
 20
538.261
 30
0.0
 40
1.4173
 41
1.4173
  0
VERTEX
  8
0
 10
692.42
 20
528.947
 30
0.0
 40
1.4173
 41
1.4173
  0
VERTEX
  8
0
 10
701.142
 20
518.635
 30
0.0
 40
1.4173
 41
1.4173
  0
VERTEX
  8
0
 10
709.541
 20
507.244
 30
0.0
 40
1.4173
 41
1.4173
  0
VERTEX
  8
0
 10
717.567
 20
494.69
 30
0.0
 40
1.4173
 41
1.4173
  0
VERTEX
  8
0
 10
725.167
 20
480.891
 30
0.0
 40
1.4173
 41
1.4173
  0
VERTEX
  8
0
 10
732.29
 20
465.763
 30
0.0
 40
1.4173
 41
1.4173
  0
VERTEX
  8
0
 10
738.884
 20
449.223
 30
0.0
 40
1.4173
 41
1.4173
  0
VERTEX
  8
0
 10
744.896
 20
431.189
 30
0.0
 40
1.4173
 41
1.4173
  0
VERTEX
  8
0
 10
750.275
 20
411.576
 30
0.0
 40
1.4173
 41
1.4173
  0
VERTEX
  8
0
 10
754.969
 20
390.303
 30
0.0
 40
1.4173
 41
1.4173
  0
VERTEX
  8
0
 10
758.925
 20
367.286
 30
0.0
 40
1.4173
 41
1.4173
  0
VERTEX
  8
0
 10
762.093
 20
342.441
 30
0.0
 40
1.4173
 41
1.4173
  0
VERTEX
  8
0
 10
764.42
 20
315.687
 30
0.0
 40
1.4173
 41
1.4173
  0
VERTEX
  8
0
 10
765.854
 20
286.94
 30
0.0
 40
1.4173
 41
1.4173
  0
VERTEX
  8
0
 10
766.344
 20
256.116
 30
0.0
 40
1.4173
 41
1.4173
  0
SEQEND
  8
0
  0
POLYLINE
8
0
 62
     0
 66
     1
 10
0
 20
0
 30
0.0
 40
1.4173
 41
1.4173
  0
VERTEX
  8
0
 10
993.112
 20
539.576
 30
0.0
 40
1.4173
 41
1.4173
  0
VERTEX
  8
0
 10
987.474
 20
537.235
 30
0.0
 40
1.4173
 41
1.4173
  0
VERTEX
  8
0
 10
981.223
 20
535.459
 30
0.0
 40
1.4173
 41
1.4173
  0
VERTEX
  8
0
 10
974.411
 20
534.15
 30
0.0
 40
1.4173
 41
1.4173
  0
VERTEX
  8
0
 10
967.091
 20
533.209
 30
0.0
 40
1.4173
 41
1.4173
  0
VERTEX
  8
0
 10
959.314
 20
532.539
 30
0.0
 40
1.4173
 41
1.4173
  0
VERTEX
  8
0
 10
951.133
 20
532.04
 30
0.0
 40
1.4173
 41
1.4173
  0
VERTEX
  8
0
 10
942.598
 20
531.614
 30
0.0
 40
1.4173
 41
1.4173
  0
VERTEX
  8
0
 10
933.762
 20
531.161
 30
0.0
 40
1.4173
 41
1.4173
  0
VERTEX
  8
0
 10
924.678
 20
530.584
 30
0.0
 40
1.4173
 41
1.4173
  0
VERTEX
  8
0
 10
915.396
 20
529.784
 30
0.0
 40
1.4173
 41
1.4173
  0
VERTEX
  8
0
 10
905.969
 20
528.662
 30
0.0
 40
1.4173
 41
1.4173
  0
VERTEX
  8
0
 10
896.448
 20
527.12
 30
0.0
 40
1.4173
 41
1.4173
  0
VERTEX
  8
0
 10
886.885
 20
525.058
 30
0.0
 40
1.4173
 41
1.4173
  0
VERTEX
  8
0
 10
877.333
 20
522.379
 30
0.0
 40
1.4173
 41
1.4173
  0
VERTEX
  8
0
 10
867.844
 20
518.984
 30
0.0
 40
1.4173
 41
1.4173
  0
VERTEX
  8
0
 10
858.469
 20
514.773
 30
0.0
 40
1.4173
 41
1.4173
  0
VERTEX
  8
0
 10
849.259
 20
509.65
 30
0.0
 40
1.4173
 41
1.4173
  0
VERTEX
  8
0
 10
840.268
 20
503.514
 30
0.0
 40
1.4173
 41
1.4173
  0
VERTEX
  8
0
 10
831.546
 20
496.268
 30
0.0
 40
1.4173
 41
1.4173
  0
VERTEX
  8
0
 10
823.147
 20
487.812
 30
0.0
 40
1.4173
 41
1.4173
  0
VERTEX
  8
0
 10
815.121
 20
478.048
 30
0.0
 40
1.4173
 41
1.4173
  0
VERTEX
  8
0
 10
807.52
 20
466.877
 30
0.0
 40
1.4173
 41
1.4173
  0
VERTEX
  8
0
 10
800.397
 20
454.202
 30
0.0
 40
1.4173
 41
1.4173
  0
VERTEX
  8
0
 10
793.804
 20
439.922
 30
0.0
 40
1.4173
 41
1.4173
  0
VERTEX
  8
0
 10
787.792
 20
423.94
 30
0.0
 40
1.4173
 41
1.4173
  0
VERTEX
  8
0
 10
782.413
 20
406.158
 30
0.0
 40
1.4173
 41
1.4173
  0
VERTEX
  8
0
 10
777.719
 20
386.475
 30
0.0
 40
1.4173
 41
1.4173
  0
VERTEX
  8
0
 10
773.762
 20
364.794
 30
0.0
 40
1.4173
 41
1.4173
  0
VERTEX
  8
0
 10
770.595
 20
341.017
 30
0.0
 40
1.4173
 41
1.4173
  0
VERTEX
  8
0
 10
768.268
 20
315.044
 30
0.0
 40
1.4173
 41
1.4173
  0
VERTEX
  8
0
 10
766.833
 20
286.776
 30
0.0
 40
1.4173
 41
1.4173
  0
VERTEX
  8
0
 10
766.344
 20
256.116
 30
0.0
 40
1.4173
 41
1.4173
  0
SEQEND
  8
0
  0
POLYLINE
8
0
 62
     0
 66
     1
 10
0
 20
0
 30
0.0
 40
1.4173
 41
1.4173
  0
VERTEX
  8
0
 10
1446.65
 20
681.306
 30
0.0
 40
1.4173
 41
1.4173
  0
VERTEX
  8
0
 10
1442.2
 20
661.1
 30
0.0
 40
1.4173
 41
1.4173
  0
VERTEX
  8
0
 10
1434.34
 20
642.898
 30
0.0
 40
1.4173
 41
1.4173
  0
VERTEX
  8
0
 10
1423.28
 20
626.543
 30
0.0
 40
1.4173
 41
1.4173
  0
VERTEX
  8
0
 10
1409.28
 20
611.881
 30
0.0
 40
1.4173
 41
1.4173
  0
VERTEX
  8
0
 10
1392.55
 20
598.754
 30
0.0
 40
1.4173
 41
1.4173
  0
VERTEX
  8
0
 10
1373.34
 20
587.009
 30
0.0
 40
1.4173
 41
1.4173
  0
VERTEX
  8
0
 10
1351.88
 20
576.488
 30
0.0
 40
1.4173
 41
1.4173
  0
VERTEX
  8
0
 10
1328.39
 20
567.036
 30
0.0
 40
1.4173
 41
1.4173
  0
VERTEX
  8
0
 10
1303.12
 20
558.498
 30
0.0
 40
1.4173
 41
1.4173
  0
VERTEX
  8
0
 10
1276.3
 20
550.718
 30
0.0
 40
1.4173
 41
1.4173
  0
VERTEX
  8
0
 10
1248.16
 20
543.54
 30
0.0
 40
1.4173
 41
1.4173
  0
VERTEX
  8
0
 10
1218.94
 20
536.808
 30
0.0
 40
1.4173
 41
1.4173
  0
VERTEX
  8
0
 10
1188.86
 20
530.367
 30
0.0
 40
1.4173
 41
1.4173
  0
VERTEX
  8
0
 10
1158.17
 20
524.061
 30
0.0
 40
1.4173
 41
1.4173
  0
VERTEX
  8
0
 10
1127.09
 20
517.734
 30
0.0
 40
1.4173
 41
1.4173
  0
VERTEX
  8
0
 10
1095.87
 20
511.23
 30
0.0
 40
1.4173
 41
1.4173
  0
VERTEX
  8
0
 10
1064.72
 20
504.395
 30
0.0
 40
1.4173
 41
1.4173
  0
VERTEX
  8
0
 10
1033.89
 20
497.071
 30
0.0
 40
1.4173
 41
1.4173
  0
VERTEX
  8
0
 10
1003.62
 20
489.104
 30
0.0
 40
1.4173
 41
1.4173
  0
VERTEX
  8
0
 10
974.122
 20
480.337
 30
0.0
 40
1.4173
 41
1.4173
  0
VERTEX
  8
0
 10
945.646
 20
470.616
 30
0.0
 40
1.4173
 41
1.4173
  0
VERTEX
  8
0
 10
918.42
 20
459.784
 30
0.0
 40
1.4173
 41
1.4173
  0
VERTEX
  8
0
 10
892.678
 20
447.685
 30
0.0
 40
1.4173
 41
1.4173
  0
VERTEX
  8
0
 10
868.655
 20
434.165
 30
0.0
 40
1.4173
 41
1.4173
  0
VERTEX
  8
0
 10
846.583
 20
419.066
 30
0.0
 40
1.4173
 41
1.4173
  0
VERTEX
  8
0
 10
826.697
 20
402.234
 30
0.0
 40
1.4173
 41
1.4173
  0
VERTEX
  8
0
 10
809.229
 20
383.512
 30
0.0
 40
1.4173
 41
1.4173
  0
VERTEX
  8
0
 10
794.413
 20
362.746
 30
0.0
 40
1.4173
 41
1.4173
  0
VERTEX
  8
0
 10
782.483
 20
339.779
 30
0.0
 40
1.4173
 41
1.4173
  0
VERTEX
  8
0
 10
773.673
 20
314.455
 30
0.0
 40
1.4173
 41
1.4173
  0
VERTEX
  8
0
 10
768.215
 20
286.62
 30
0.0
 40
1.4173
 41
1.4173
  0
VERTEX
  8
0
 10
766.344
 20
256.116
 30
0.0
 40
1.4173
 41
1.4173
  0
SEQEND
  8
0
  0
POLYLINE
8
0
 62
     0
 66
     1
 10
0
 20
0
 30
0.0
 40
2.8346
 41
2.8346
  0
VERTEX
  8
0
 10
86.0403
 20
482.884
 30
0.0
 40
2.8346
 41
2.8346
  0
VERTEX
  8
0
 10
1.0022
 20
397.846
 30
0.0
 40
2.8346
 41
2.8346
  0
SEQEND
  8
0
  0
POLYLINE
8
0
 62
     0
 66
     1
 10
0
 20
0
 30
0.0
 40
2.8346
 41
2.8346
  0
VERTEX
  8
0
 10
1531.69
 20
794.69
 30
0.0
 40
2.8346
 41
2.8346
  0
VERTEX
  8
0
 10
1514.73
 20
769.398
 30
0.0
 40
2.8346
 41
2.8346
  0
VERTEX
  8
0
 10
1494.73
 20
746.612
 30
0.0
 40
2.8346
 41
2.8346
  0
VERTEX
  8
0
 10
1471.94
 20
726.606
 30
0.0
 40
2.8346
 41
2.8346
  0
VERTEX
  8
0
 10
1446.65
 20
709.653
 30
0.0
 40
2.8346
 41
2.8346
  0
SEQEND
  8
0
  0
POLYLINE
8
0
 62
     0
 66
     1
 10
0
 20
0
 30
0.0
 40
2.8346
 41
2.8346
  0
VERTEX
  8
0
 10
1446.65
 20
312.808
 30
0.0
 40
2.8346
 41
2.8346
  0
VERTEX
  8
0
 10
1454.18
 20
323.793
 30
0.0
 40
2.8346
 41
2.8346
  0
VERTEX
  8
0
 10
1462.8
 20
333.795
 30
0.0
 40
2.8346
 41
2.8346
  0
VERTEX
  8
0
 10
1472.4
 20
342.748
 30
0.0
 40
2.8346
 41
2.8346
  0
VERTEX
  8
0
 10
1482.88
 20
350.588
 30
0.0
 40
2.8346
 41
2.8346
  0
VERTEX
  8
0
 10
1494.15
 20
357.249
 30
0.0
 40
2.8346
 41
2.8346
  0
VERTEX
  8
0
 10
1506.1
 20
362.664
 30
0.0
 40
2.8346
 41
2.8346
  0
VERTEX
  8
0
 10
1518.65
 20
366.77
 30
0.0
 40
2.8346
 41
2.8346
  0
VERTEX
  8
0
 10
1531.69
 20
369.5
 30
0.0
 40
2.8346
 41
2.8346
  0
SEQEND
  8
0
  0
POLYLINE
8
0
 62
     0
 66
     1
 10
0
 20
0
 30
0.0
 40
2.8346
 41
2.8346
  0
VERTEX
  8
0
 10
86.0403
 20
86.04
 30
0.0
 40
2.8346
 41
2.8346
  0
VERTEX
  8
0
 10
1.0022
 20
1.0022
 30
0.0
 40
2.8346
 41
2.8346
  0
SEQEND
  8
0
  0
POLYLINE
8
0
 62
     0
 66
     1
 10
0
 20
0
 30
0.0
 40
1.4173
 41
1.4173
  0
VERTEX
  8
0
 10
766.344
 20
567.922
 30
0.0
 40
1.4173
 41
1.4173
  0
VERTEX
  8
0
 10
766.344
 20
199.424
 30
0.0
 40
1.4173
 41
1.4173
  0
SEQEND
  8
0
  0
POLYLINE
8
0
 62
     7
 66
     1
 10
0
 20
0
 30
0.0
 40
0
 41
0
  0
VERTEX
  8
0
 10
755.006
 20
222.101
 30
0.0
 40
0
 41
0
  0
VERTEX
  8
0
 10
766.344
 20
199.424
 30
0.0
 40
0
 41
0
  0
VERTEX
  8
0
 10
777.682
 20
222.101
 30
0.0
 40
0
 41
0
  0
SEQEND
  8
0
  0
POLYLINE
8
0
 62
     0
 66
     1
 10
0
 20
0
 30
0.0
 70
     1
 40
1.4173
 41
1.4173
  0
VERTEX
  8
0
 10
755.006
 20
222.101
 30
0.0
 40
1.4173
 41
1.4173
  0
VERTEX
  8
0
 10
766.344
 20
199.424
 30
0.0
 40
1.4173
 41
1.4173
  0
VERTEX
  8
0
 10
777.682
 20
222.101
 30
0.0
 40
1.4173
 41
1.4173
  0
VERTEX
  8
0
 10
755.006
 20
222.101
 30
0.0
 40
1.4173
 41
1.4173
  0
SEQEND
  8
0
  0
POLYLINE
8
0
 62
     0
 66
     1
 10
0
 20
0
 30
0.0
 40
1.4173
 41
1.4173
  0
VERTEX
  8
0
 10
766.344
 20
284.462
 30
0.0
 40
1.4173
 41
1.4173
  0
VERTEX
  8
0
 10
879.728
 20
171.078
 30
0.0
 40
1.4173
 41
1.4173
  0
SEQEND
  8
0
  0
POLYLINE
8
0
 62
     7
 66
     1
 10
0
 20
0
 30
0.0
 40
0
 41
0
  0
VERTEX
  8
0
 10
855.676
 20
179.095
 30
0.0
 40
0
 41
0
  0
VERTEX
  8
0
 10
879.728
 20
171.078
 30
0.0
 40
0
 41
0
  0
VERTEX
  8
0
 10
871.711
 20
195.13
 30
0.0
 40
0
 41
0
  0
SEQEND
  8
0
  0
POLYLINE
8
0
 62
     0
 66
     1
 10
0
 20
0
 30
0.0
 70
     1
 40
1.4173
 41
1.4173
  0
VERTEX
  8
0
 10
855.676
 20
179.095
 30
0.0
 40
1.4173
 41
1.4173
  0
VERTEX
  8
0
 10
879.728
 20
171.078
 30
0.0
 40
1.4173
 41
1.4173
  0
VERTEX
  8
0
 10
871.711
 20
195.13
 30
0.0
 40
1.4173
 41
1.4173
  0
VERTEX
  8
0
 10
855.676
 20
179.095
 30
0.0
 40
1.4173
 41
1.4173
  0
SEQEND
  8
0
  0
POLYLINE
8
0
 62
     0
 66
     1
 10
0
 20
0
 30
0.0
 40
1.4173
 41
1.4173
  0
VERTEX
  8
0
 10
766.344
 20
284.462
 30
0.0
 40
1.4173
 41
1.4173
  0
VERTEX
  8
0
 10
652.96
 20
227.77
 30
0.0
 40
1.4173
 41
1.4173
  0
SEQEND
  8
0
  0
POLYLINE
8
0
 62
     7
 66
     1
 10
0
 20
0
 30
0.0
 40
0
 41
0
  0
VERTEX
  8
0
 10
668.172
 20
248.053
 30
0.0
 40
0
 41
0
  0
VERTEX
  8
0
 10
652.96
 20
227.77
 30
0.0
 40
0
 41
0
  0
VERTEX
  8
0
 10
678.313
 20
227.77
 30
0.0
 40
0
 41
0
  0
SEQEND
  8
0
  0
POLYLINE
8
0
 62
     0
 66
     1
 10
0
 20
0
 30
0.0
 70
     1
 40
1.4173
 41
1.4173
  0
VERTEX
  8
0
 10
668.172
 20
248.053
 30
0.0
 40
1.4173
 41
1.4173
  0
VERTEX
  8
0
 10
652.96
 20
227.77
 30
0.0
 40
1.4173
 41
1.4173
  0
VERTEX
  8
0
 10
678.313
 20
227.77
 30
0.0
 40
1.4173
 41
1.4173
  0
VERTEX
  8
0
 10
668.172
 20
248.053
 30
0.0
 40
1.4173
 41
1.4173
  0
SEQEND
  8
0
  0
POLYLINE
8
0
 62
     0
 66
     1
 10
0
 20
0
 30
0.0
 70
     1
 40
2.8346
 41
2.8346
  0
VERTEX
  8
0
 10
284.462
 20
652.96
 30
0.0
 40
2.8346
 41
2.8346
  0
VERTEX
  8
0
 10
284.462
 20
596.268
 30
0.0
 40
2.8346
 41
2.8346
  0
VERTEX
  8
0
 10
341.154
 20
596.268
 30
0.0
 40
2.8346
 41
2.8346
  0
VERTEX
  8
0
 10
341.154
 20
652.96
 30
0.0
 40
2.8346
 41
2.8346
  0
VERTEX
  8
0
 10
284.462
 20
652.96
 30
0.0
 40
2.8346
 41
2.8346
  0
SEQEND
  8
0
  0
POLYLINE
8
0
 62
     0
 66
     1
 10
0
 20
0
 30
0.0
 70
     1
 40
2.8346
 41
2.8346
  0
VERTEX
  8
0
 10
737.998
 20
624.614
 30
0.0
 40
2.8346
 41
2.8346
  0
VERTEX
  8
0
 10
737.998
 20
567.922
 30
0.0
 40
2.8346
 41
2.8346
  0
VERTEX
  8
0
 10
794.69
 20
567.922
 30
0.0
 40
2.8346
 41
2.8346
  0
VERTEX
  8
0
 10
794.69
 20
624.614
 30
0.0
 40
2.8346
 41
2.8346
  0
VERTEX
  8
0
 10
737.998
 20
624.614
 30
0.0
 40
2.8346
 41
2.8346
  0
SEQEND
  8
0
  0
POLYLINE
8
0
 62
     0
 66
     1
 10
0
 20
0
 30
0.0
 70
     1
 40
2.8346
 41
2.8346
  0
VERTEX
  8
0
 10
1191.53
 20
652.96
 30
0.0
 40
2.8346
 41
2.8346
  0
VERTEX
  8
0
 10
1191.53
 20
596.268
 30
0.0
 40
2.8346
 41
2.8346
  0
VERTEX
  8
0
 10
1248.23
 20
596.268
 30
0.0
 40
2.8346
 41
2.8346
  0
VERTEX
  8
0
 10
1248.23
 20
652.96
 30
0.0
 40
2.8346
 41
2.8346
  0
VERTEX
  8
0
 10
1191.53
 20
652.96
 30
0.0
 40
2.8346
 41
2.8346
  0
SEQEND
  8
0
  0
POLYLINE
8
0
 62
     0
 66
     1
 10
0
 20
0
 30
0.0
 70
     1
 40
2.8346
 41
2.8346
  0
VERTEX
  8
0
 10
397.846
 20
284.462
 30
0.0
 40
2.8346
 41
2.8346
  0
VERTEX
  8
0
 10
397.846
 20
227.77
 30
0.0
 40
2.8346
 41
2.8346
  0
VERTEX
  8
0
 10
454.538
 20
227.77
 30
0.0
 40
2.8346
 41
2.8346
  0
VERTEX
  8
0
 10
454.538
 20
284.462
 30
0.0
 40
2.8346
 41
2.8346
  0
VERTEX
  8
0
 10
397.846
 20
284.462
 30
0.0
 40
2.8346
 41
2.8346
  0
SEQEND
  8
0
  0
POLYLINE
8
0
 62
     0
 66
     1
 10
0
 20
0
 30
0.0
 70
     1
 40
2.8346
 41
2.8346
  0
VERTEX
  8
0
 10
171.078
 20
199.424
 30
0.0
 40
2.8346
 41
2.8346
  0
VERTEX
  8
0
 10
171.078
 20
142.732
 30
0.0
 40
2.8346
 41
2.8346
  0
VERTEX
  8
0
 10
227.77
 20
142.732
 30
0.0
 40
2.8346
 41
2.8346
  0
VERTEX
  8
0
 10
227.77
 20
199.424
 30
0.0
 40
2.8346
 41
2.8346
  0
VERTEX
  8
0
 10
171.078
 20
199.424
 30
0.0
 40
2.8346
 41
2.8346
  0
SEQEND
  8
0
  0
POLYLINE
8
0
 62
     0
 66
     1
 10
0
 20
0
 30
0.0
 70
     1
 40
2.8346
 41
2.8346
  0
VERTEX
  8
0
 10
624.614
 20
227.77
 30
0.0
 40
2.8346
 41
2.8346
  0
VERTEX
  8
0
 10
624.614
 20
171.078
 30
0.0
 40
2.8346
 41
2.8346
  0
VERTEX
  8
0
 10
681.306
 20
171.078
 30
0.0
 40
2.8346
 41
2.8346
  0
VERTEX
  8
0
 10
681.306
 20
227.77
 30
0.0
 40
2.8346
 41
2.8346
  0
VERTEX
  8
0
 10
624.614
 20
227.77
 30
0.0
 40
2.8346
 41
2.8346
  0
SEQEND
  8
0
  0
POLYLINE
8
0
 62
     0
 66
     1
 10
0
 20
0
 30
0.0
 70
     1
 40
2.8346
 41
2.8346
  0
VERTEX
  8
0
 10
851.382
 20
171.078
 30
0.0
 40
2.8346
 41
2.8346
  0
VERTEX
  8
0
 10
851.382
 20
114.386
 30
0.0
 40
2.8346
 41
2.8346
  0
VERTEX
  8
0
 10
908.074
 20
114.386
 30
0.0
 40
2.8346
 41
2.8346
  0
VERTEX
  8
0
 10
908.074
 20
171.078
 30
0.0
 40
2.8346
 41
2.8346
  0
VERTEX
  8
0
 10
851.382
 20
171.078
 30
0.0
 40
2.8346
 41
2.8346
  0
SEQEND
  8
0
  0
POLYLINE
8
0
 62
     0
 66
     1
 10
0
 20
0
 30
0.0
 70
     1
 40
2.8346
 41
2.8346
  0
VERTEX
  8
0
 10
1078.15
 20
227.77
 30
0.0
 40
2.8346
 41
2.8346
  0
VERTEX
  8
0
 10
1078.15
 20
171.078
 30
0.0
 40
2.8346
 41
2.8346
  0
VERTEX
  8
0
 10
1134.84
 20
171.078
 30
0.0
 40
2.8346
 41
2.8346
  0
VERTEX
  8
0
 10
1134.84
 20
227.77
 30
0.0
 40
2.8346
 41
2.8346
  0
VERTEX
  8
0
 10
1078.15
 20
227.77
 30
0.0
 40
2.8346
 41
2.8346
  0
SEQEND
  8
0
  0
POLYLINE
8
0
 62
     0
 66
     1
 10
0
 20
0
 30
0.0
 70
     1
 40
2.8346
 41
2.8346
  0
VERTEX
  8
0
 10
1304.92
 20
256.116
 30
0.0
 40
2.8346
 41
2.8346
  0
VERTEX
  8
0
 10
1304.92
 20
199.424
 30
0.0
 40
2.8346
 41
2.8346
  0
VERTEX
  8
0
 10
1361.61
 20
199.424
 30
0.0
 40
2.8346
 41
2.8346
  0
VERTEX
  8
0
 10
1361.61
 20
256.116
 30
0.0
 40
2.8346
 41
2.8346
  0
VERTEX
  8
0
 10
1304.92
 20
256.116
 30
0.0
 40
2.8346
 41
2.8346
  0
SEQEND
  8
0
  0
ENDSEC
  0
EOF
